<svg width="225" height="347" viewBox="0 0 225 347" fill="none" xmlns="http://www.w3.org/2000/svg">
<path d="M14.4314 251.705C14.6994 269.611 36.405 294.373 46.0686 304.25C48.9558 304.849 56.4187 313.614 85.1189 313.654C108.079 313.686 130.196 283.398 138.384 268.25C124.775 267.399 96.2408 249.018 96.3498 248.384C96.4371 247.877 104.544 249.426 108.586 250.263C128.338 252.256 147.849 242.21 155.135 236.938C167.68 227.987 178.416 209.386 182.216 201.204C158.568 196.829 146.098 185.188 142.819 179.915C145.924 179.246 171.083 182.49 181.009 183.89C188.95 185.011 193.275 180.963 194.444 178.799C209.231 154.036 209.773 108.252 208.195 88.4559C208.302 71.1522 200.174 42.3856 196.097 30.1652C193.351 32.2213 176.03 36.7264 167.712 38.722C144.883 49.7427 146.445 57.815 145.013 62.8951C143.452 68.4277 143.246 70.842 142.222 72.1611C138.398 70.0561 138.115 64.7473 123.493 66.3115C108.87 67.8756 103.802 79.9511 95.7049 88.774C89.2274 95.8323 86.7788 107.05 86.3641 111.777C86.7881 119.741 96.2335 130.886 97.1704 132.392C98.1072 133.899 100.558 137.032 98.3576 135.92C96.1567 134.807 85.1525 129.246 73.7443 129.507C62.3361 129.769 48.8763 155.856 45.3548 172.846C41.8333 189.836 53.3261 209.937 55.1998 212.95C56.6988 215.361 55.7732 216.569 55.1231 216.872C50.3727 214.356 39.436 208.634 33.692 205.869C26.5119 202.412 21.9244 204.743 19.3197 209.454C15.1121 217.063 12.1098 237.391 14.4314 251.705Z" fill="#DCEFE0"/>
<path d="M164.493 74.8072C162.292 73.6949 158.802 70.3465 162.446 65.8513C167.001 60.2323 171.281 73.5886 164.493 74.8072Z" fill="#F1FAF3"/>
<path d="M34.0706 314.89C34.4196 312.862 130.592 159.444 178.635 82.9877C182.567 79.6021 181.014 86.5431 179.746 90.4368C177.751 98.5551 48.5197 307.384 42.4824 314.664C36.4451 321.945 33.6345 317.425 34.0706 314.89Z" fill="#F1FAF3"/>
<path d="M34.2327 237.483C34.4491 250.128 47.9561 253.889 54.6825 254.189C57.0692 250.746 50.935 248.162 44.1911 242.171C38.796 237.378 35.3042 237.048 34.2327 237.483Z" fill="#F1FAF3"/>
<path d="M106.381 283.933C111.175 283.876 110.042 281.192 108.876 279.856C105.379 275.85 91.4106 273.612 88.4142 273.648C85.4178 273.683 84.6223 274.831 84.6545 278.119C84.6868 281.407 100.388 284.004 106.381 283.933Z" fill="#F1FAF3"/>
<path d="M84.2191 186.806C91.9241 192.077 89.6964 185.097 87.6194 180.947C85.397 177.643 79.4661 169.939 73.5218 165.557C67.5775 161.175 67.914 165.708 68.8253 168.521C70.7461 172.42 76.5141 181.534 84.2191 186.806Z" fill="#F1FAF3"/>
<path d="M126.145 113.457C131.741 119.867 132.378 114.311 131.997 110.732C132.106 110.099 130.775 106.016 124.578 94.757C118.382 83.4976 118.168 91.46 118.836 96.8485C118.941 99.7142 120.55 107.048 126.145 113.457Z" fill="#F1FAF3"/>
<path d="M171.022 141.132C163.369 141.121 167.107 145.352 169.932 147.469C182.2 152.636 187.224 147.77 186.287 146.264C185.35 144.757 180.589 141.145 171.022 141.132Z" fill="#F1FAF3"/>
<path d="M145.985 220.604C152.714 220.424 149.37 217.149 146.857 215.535C138.74 210.572 126.645 211.347 127.255 214.755C127.865 218.163 137.573 220.83 145.985 220.604Z" fill="#F1FAF3"/>
</svg>
