<svg width="28" height="28" viewBox="0 0 28 28" fill="none" xmlns="http://www.w3.org/2000/svg">
<g clip-path="url(#clip0_356_2371)">
<path d="M21 19.25C20.3078 19.25 19.6311 19.0447 19.0555 18.6601C18.4799 18.2756 18.0313 17.7289 17.7664 17.0894C17.5015 16.4499 17.4322 15.7461 17.5673 15.0672C17.7023 14.3883 18.0356 13.7646 18.5251 13.2751C19.0146 12.7856 19.6383 12.4523 20.3172 12.3173C20.9961 12.1822 21.6999 12.2515 22.3394 12.5164C22.9789 12.7813 23.5256 13.2299 23.9101 13.8055C24.2947 14.3811 24.5 15.0578 24.5 15.75C24.499 16.6779 24.1299 17.5676 23.4737 18.2237C22.8176 18.8799 21.9279 19.249 21 19.25V19.25ZM21 14C20.6539 14 20.3155 14.1026 20.0278 14.2949C19.74 14.4872 19.5157 14.7605 19.3832 15.0803C19.2508 15.4001 19.2161 15.7519 19.2836 16.0914C19.3512 16.4309 19.5178 16.7427 19.7626 16.9874C20.0073 17.2322 20.3191 17.3989 20.6586 17.4664C20.9981 17.5339 21.3499 17.4992 21.6697 17.3668C21.9895 17.2343 22.2628 17.01 22.4551 16.7223C22.6474 16.4345 22.75 16.0961 22.75 15.75C22.7495 15.286 22.565 14.8412 22.2369 14.5131C21.9088 14.185 21.464 14.0005 21 14Z" fill="#1D2023"/>
<path d="M26.25 24.5H24.5V22.75C24.4997 22.518 24.4075 22.2956 24.2434 22.1316C24.0794 21.9675 23.857 21.8753 23.625 21.875H18.375C18.143 21.8753 17.9206 21.9675 17.7566 22.1316C17.5925 22.2956 17.5003 22.518 17.5 22.75V24.5H15.75V22.75C15.7508 22.054 16.0276 21.3868 16.5197 20.8947C17.0118 20.4026 17.679 20.1258 18.375 20.125H23.625C24.321 20.1258 24.9882 20.4026 25.4803 20.8947C25.9724 21.3868 26.2492 22.054 26.25 22.75V24.5Z" fill="#1D2023"/>
<path d="M11.0833 14.7496L8.81709 12.4834L7.58334 13.7171L11.0833 17.2171L18.0833 10.2171L16.8496 8.9834L11.0833 14.7496Z" fill="#1D2023"/>
<path d="M12.25 24.2667L7.6699 21.8246C6.40933 21.154 5.35516 20.1528 4.62053 18.9285C3.88589 17.7041 3.49852 16.3028 3.5 14.875V3.5H21V8.75H22.75V3.5C22.7495 3.03603 22.5649 2.59122 22.2368 2.26315C21.9088 1.93508 21.464 1.75053 21 1.75H3.5C3.03603 1.75053 2.59122 1.93508 2.26315 2.26315C1.93508 2.59122 1.75053 3.03603 1.75 3.5V14.875C1.7481 16.6201 2.22147 18.3327 3.1193 19.8291C4.01713 21.3255 5.30552 22.5491 6.84617 23.3686L12.25 26.25V24.2667Z" fill="#1D2023"/>
</g>
<defs>
<clipPath id="clip0_356_2371">
<rect width="28" height="28" fill="white"/>
</clipPath>
</defs>
</svg>
