<svg width="32" height="32" viewBox="0 0 32 32" fill="none" xmlns="http://www.w3.org/2000/svg">
<g clip-path="url(#clip0_351_1410)">
<path d="M23.6821 4.5332C21.5329 4.5332 19.4913 5.39285 17.9869 6.89724L16.6974 8.18671L15.5154 7.00469C12.3992 3.78101 7.24129 3.78101 4.12507 6.89724L4.01761 7.00469C0.793934 10.2284 0.793934 15.3863 4.01761 18.6099L16.6974 31.3972L29.3772 18.6099C32.6009 15.3863 32.6009 10.2284 29.3772 7.00469C27.8728 5.39285 25.8312 4.5332 23.6821 4.5332Z" fill="#459F5E"/>
<path d="M15.5871 23.7003C15.4994 23.6633 15.4265 23.5981 15.38 23.5151C15.3334 23.432 15.3158 23.3359 15.33 23.2417L16.11 18.1631H14.04C13.9743 18.1649 13.9092 18.1516 13.8495 18.1241C13.7899 18.0967 13.7373 18.056 13.6959 18.0051C13.6545 17.9541 13.6253 17.8944 13.6107 17.8304C13.596 17.7664 13.5963 17.6999 13.6114 17.636L14.8971 12.0645C14.9197 11.9686 14.9747 11.8835 15.0527 11.8234C15.1308 11.7633 15.2272 11.7319 15.3257 11.7345H19.6114C19.6754 11.7343 19.7387 11.7484 19.7965 11.7759C19.8544 11.8033 19.9054 11.8434 19.9457 11.8931C19.9866 11.9434 20.0156 12.0023 20.0304 12.0654C20.0453 12.1285 20.0456 12.1941 20.0314 12.2574L19.29 15.5917H21.3257C21.406 15.5915 21.4848 15.6139 21.553 15.6564C21.6212 15.6988 21.6761 15.7596 21.7114 15.8317C21.7421 15.9009 21.7539 15.977 21.7457 16.0523C21.7374 16.1276 21.7093 16.1994 21.6643 16.2603L16.0928 23.546C16.0552 23.6018 16.0049 23.648 15.9461 23.6807C15.8872 23.7135 15.8215 23.7319 15.7542 23.7346C15.6969 23.7335 15.6402 23.7219 15.5871 23.7003Z" fill="white"/>
</g>
<defs>
<clipPath id="clip0_351_1410">
<rect width="32" height="32" fill="white"/>
</clipPath>
</defs>
</svg>
