<svg width="32" height="32" viewBox="0 0 32 32" fill="none" xmlns="http://www.w3.org/2000/svg">
<g clip-path="url(#clip0_351_1402)">
<path d="M17 2H15V7H17V2Z" fill="#459F5E"/>
<path d="M25.1924 5.39455L21.6865 8.90039L23.1006 10.3145L26.6064 6.80863L25.1924 5.39455Z" fill="#459F5E"/>
<path d="M30 15H25V17H30V15Z" fill="#459F5E"/>
<path d="M23.1006 21.6855L21.6865 23.0996L25.1924 26.6054L26.6064 25.1914L23.1006 21.6855Z" fill="#459F5E"/>
<path d="M17 25H15V30H17V25Z" fill="#459F5E"/>
<path d="M8.89939 21.6875L5.39355 25.1934L6.80763 26.6074L10.3135 23.1016L8.89939 21.6875Z" fill="#459F5E"/>
<path d="M7 15H2V17H7V15Z" fill="#459F5E"/>
<path d="M6.80763 5.39257L5.39355 6.80664L8.89939 10.3125L10.3135 8.8984L6.80763 5.39257Z" fill="#459F5E"/>
<path d="M16 10C14.8133 10 13.6533 10.3519 12.6666 11.0112C11.6799 11.6705 10.9109 12.6075 10.4567 13.7039C10.0026 14.8003 9.88378 16.0067 10.1153 17.1705C10.3468 18.3344 10.9182 19.4035 11.7574 20.2426C12.5965 21.0818 13.6656 21.6532 14.8295 21.8847C15.9933 22.1162 17.1997 21.9974 18.2961 21.5433C19.3925 21.0892 20.3295 20.3201 20.9888 19.3334C21.6481 18.3467 22 17.1867 22 16C22 14.4087 21.3679 12.8826 20.2426 11.7574C19.1174 10.6321 17.5913 10 16 10Z" fill="#459F5E"/>
</g>
<defs>
<clipPath id="clip0_351_1402">
<rect width="32" height="32" fill="white"/>
</clipPath>
</defs>
</svg>
