<svg width="28" height="28" viewBox="0 0 28 28" fill="none" xmlns="http://www.w3.org/2000/svg">
<g clip-path="url(#clip0_356_2378)">
<path d="M17.5 7H15.75C15.75 5.83968 15.2891 4.72688 14.4686 3.90641C13.6481 3.08594 12.5353 2.625 11.375 2.625C10.2147 2.625 9.10188 3.08594 8.28141 3.90641C7.46094 4.72688 7 5.83968 7 7H5.25C5.25 5.37555 5.89531 3.81763 7.04397 2.66897C8.19263 1.52031 9.75055 0.875 11.375 0.875C12.9995 0.875 14.5574 1.52031 15.706 2.66897C16.8547 3.81763 17.5 5.37555 17.5 7Z" fill="#707070"/>
<path d="M21.875 13.125C21.4229 13.1266 20.9793 13.2473 20.5888 13.475C20.3528 13.1008 20.0262 12.7924 19.6392 12.5782C19.2522 12.364 18.8173 12.2511 18.375 12.25C17.9229 12.2516 17.4793 12.3723 17.0888 12.6C16.7704 12.0991 16.2917 11.7208 15.7308 11.527C15.1698 11.3331 14.5597 11.335 14 11.5325V7C14 6.30381 13.7234 5.63613 13.2312 5.14384C12.7389 4.65156 12.0712 4.375 11.375 4.375C10.6788 4.375 10.0111 4.65156 9.51885 5.14384C9.02656 5.63613 8.75 6.30381 8.75 7V16.7125L6.79875 15.3825C6.35145 15.0494 5.80771 14.8712 5.25 14.875C4.72936 14.8737 4.22009 15.0273 3.78695 15.3162C3.35381 15.6051 3.01637 16.0163 2.81752 16.4974C2.61867 16.9786 2.5674 17.508 2.67023 18.0184C2.77306 18.5288 3.02534 18.9971 3.395 19.3637L10.395 25.7513C11.386 26.6383 12.67 27.1275 14 27.125H18.375C19.9995 27.125 21.5574 26.4797 22.706 25.331C23.8547 24.1824 24.5 22.6245 24.5 21V15.75C24.5 15.0538 24.2234 14.3861 23.7312 13.8938C23.2389 13.4016 22.5712 13.125 21.875 13.125V13.125ZM22.75 21C22.75 22.1603 22.2891 23.2731 21.4686 24.0936C20.6481 24.9141 19.5353 25.375 18.375 25.375H14C13.1156 25.3857 12.2573 25.0747 11.585 24.5L4.62875 18.1125C4.4671 17.9495 4.37597 17.7295 4.375 17.5C4.375 17.3375 4.42025 17.1782 4.50568 17.04C4.59111 16.9018 4.71335 16.79 4.85869 16.7174C5.00403 16.6447 5.16674 16.6139 5.32858 16.6285C5.49042 16.6431 5.645 16.7025 5.775 16.8L10.5 20.0375V7C10.5 6.76794 10.5922 6.54538 10.7563 6.38128C10.9204 6.21719 11.1429 6.125 11.375 6.125C11.6071 6.125 11.8296 6.21719 11.9937 6.38128C12.1578 6.54538 12.25 6.76794 12.25 7V16.625H14V14C14 13.7679 14.0922 13.5454 14.2563 13.3813C14.4204 13.2172 14.6429 13.125 14.875 13.125C15.1071 13.125 15.3296 13.2172 15.4937 13.3813C15.6578 13.5454 15.75 13.7679 15.75 14V16.625H17.5V14.875C17.5 14.6429 17.5922 14.4204 17.7563 14.2563C17.9204 14.0922 18.1429 14 18.375 14C18.6071 14 18.8296 14.0922 18.9937 14.2563C19.1578 14.4204 19.25 14.6429 19.25 14.875V16.625H21V15.75C21 15.5179 21.0922 15.2954 21.2563 15.1313C21.4204 14.9672 21.6429 14.875 21.875 14.875C22.1071 14.875 22.3296 14.9672 22.4937 15.1313C22.6578 15.2954 22.75 15.5179 22.75 15.75V21Z" fill="#707070"/>
</g>
<defs>
<clipPath id="clip0_356_2378">
<rect width="28" height="28" fill="white"/>
</clipPath>
</defs>
</svg>
