<svg width="209" height="208" viewBox="0 0 209 208" fill="none" xmlns="http://www.w3.org/2000/svg">
<path fill-rule="evenodd" clip-rule="evenodd" d="M90.6894 23.0666C92.5711 27.0716 99.4404 51.5464 101.848 62.825C102.054 63.7877 104.92 81.5289 105.152 78.6352C105.238 77.5611 102.985 56.1208 101.678 47.4208C100.873 42.0681 100.418 33.1393 100.642 27.1001C100.681 26.0694 100.689 23.9237 100.66 22.3323C100.585 18.0643 101.184 17.9676 101.998 22.1159C102.743 25.9099 104.377 37.8914 104.881 43.2437C105.444 49.2296 106.447 55.257 106.638 61.2688C106.829 67.1797 107.496 71.0326 107.791 76.9398C107.987 80.8751 108.956 83.0201 108.983 77.0558C108.991 75.4144 109.59 73.9294 109.658 69.1942C109.818 57.9368 109.893 51.1607 109.903 46.8785C109.915 41.5335 111.039 16.4165 111.286 15.967C111.645 15.3123 112.528 19.6906 112.891 23.9227C113.273 28.3944 113.425 35.8011 113.582 57.6241C113.68 71.4152 112.006 80.1769 113.134 79.7858C115.599 78.9293 118.853 47.8676 119.327 45.9869C122.881 31.8733 124.258 27.5006 126.991 21.6532C128.726 17.9383 129.636 16.8674 129.633 18.5416C129.631 20.1305 128.356 26.6329 126.189 36.1096C124.699 42.6207 123.616 49.3059 121.738 55.7191C120.345 60.4748 117.184 74.6515 117.478 74.8129C117.747 74.9603 124.049 58.7333 124.308 57.5992C125.047 54.3685 139.415 28.5892 142.058 25.7529C143.199 24.5274 142.44 26.6176 139.229 33.54C133.599 45.6766 129.129 58.31 123.194 70.2768C121.075 74.5506 116.437 84.0036 116.593 84.0889C116.924 84.2709 121.687 76.3158 123.286 73.8282C124.434 72.0414 125.563 70.4626 128.218 66.9318C135.441 57.3273 142.299 47.4568 149.545 37.8709C152.344 34.1684 155.179 30.3093 155.846 29.2947C156.513 28.2805 157.24 27.5548 157.462 27.6821C157.975 27.9775 150.565 40.9765 143.576 52.042C138.054 60.783 132.464 69.4997 126.042 77.6151C124.378 79.7162 123.836 80.8204 124.574 80.6055C124.7 80.5686 125.973 79.3878 127.401 77.9811C128.828 76.5749 132.433 73.0509 135.412 70.1499C139.779 65.8954 144.106 61.5887 148.316 57.1778C155.497 49.6558 168.009 37.8298 169.132 37.5028C169.834 37.2982 168.222 39.4494 165.751 42.0147C154 54.2173 143.434 67.4421 131.383 79.3862C126.988 83.7416 118.412 87.7485 119.213 87.5151C120.134 87.2466 130.593 83.0299 133.24 80.9907C145.787 71.324 158.789 62.2794 170.925 52.0607C173.257 50.0972 176.435 48.145 175.983 48.9536C175.174 50.4026 157.919 66.7802 151.524 72.1687C145.989 76.8333 141.537 79.8347 138.678 81.3627C136.926 82.2993 119.154 91.2804 119.733 91.3027C120.492 91.3318 139.217 83.958 143.389 81.577C149.079 78.3303 154.972 75.1494 160.781 72.1272C175.666 64.3825 178.843 62.8751 179.338 63.3208C179.761 63.703 178.913 64.448 174.326 67.7201C164.789 74.525 154.26 80.1965 139.677 86.383C131.095 90.0241 119.346 93.4851 119.033 94.0555C118.719 94.627 129.833 91.6229 138.452 89.3365C143.357 88.0354 145.232 87.4716 149.744 85.941C158.638 82.924 183.088 77.5993 184.496 78.3725C185.865 79.1239 164.853 85.4381 151.366 88.3282C141.652 90.41 129.426 92.9514 130.588 93.2197C130.998 93.3144 136.574 92.9934 138.3 92.7933C142.206 92.3405 149.1 91.6357 156.752 90.9079C162.608 90.3508 168.447 89.4193 174.32 89.059C182.424 88.5622 185.744 88.4332 186.43 88.588C187.67 88.8686 182.627 90.1691 178.132 90.7276C168.69 91.9029 159.213 93.7352 149.675 93.659C147.491 93.6414 125.19 95.3557 124.11 95.9878C123.23 96.5027 138.683 96.1752 140.776 96.342C143.156 96.5314 145.523 96.1969 147.914 96.307C149.842 96.3958 152.87 96.4334 154.641 96.39C160.535 96.2471 166.469 97.0405 172.337 97.4809C177.066 97.8361 179.684 98.3353 178.607 98.6765C177.838 98.9199 170.947 99.1498 161.269 99.2549C158.093 99.2894 154.772 99.3459 153.89 99.3809C153.009 99.4158 148.798 99.2803 144.534 99.0802C137.028 98.7272 123.626 97.5811 122.47 97.9015C121.424 98.1915 129.91 99.815 131.924 99.9344C133.026 99.9998 136.648 100.443 139.972 100.918C143.297 101.394 148.992 102.057 152.63 102.392C161.811 103.237 180.946 106.936 183.605 108.379C184.678 108.961 184.674 108.966 183.224 108.971C178.196 108.992 159.404 106.994 151.293 105.576C145.76 104.608 140.145 104.161 134.633 103.079C132.637 102.687 122.126 100.628 121.804 100.722C120.229 101.181 130.53 103.738 139.525 106.543C147.943 109.167 158.506 112.619 160.524 113.404C167.54 116.134 180.2 121.426 180.618 121.804C181.161 122.293 178.032 121.584 172.887 120.05C167.672 118.496 162.39 117.203 157.247 115.405C150.407 113.013 143.224 111.592 136.464 109.002C134.184 108.129 126.402 104.627 128.087 105.584C128.754 105.963 142.405 113.403 150.078 117.672C158.872 122.564 168.191 127.181 176.09 133.49L173.272 132.342C169.67 130.875 165.515 128.772 150.053 120.59C143.157 116.94 136.1 113.396 134.372 112.716C132.561 112.002 125.192 107.167 123.441 106.34C122.259 105.781 128.253 110.152 130.559 112.068C140.218 120.089 150.568 127.243 160.666 134.694C166.991 139.363 171.697 143.019 171.769 143.322C171.915 143.934 159.021 135.852 155.068 132.853C153.272 131.49 136.132 119.851 130.247 115.997C127.401 114.134 123.759 111.681 122.154 110.546C116.872 106.813 116.476 106.558 116.341 106.805C114.735 109.746 136.547 129.417 139.612 132.299C144.838 137.214 149.914 142.281 155.176 147.159C158.805 150.524 161.722 153.372 161.659 153.489C161.421 153.922 150.785 145.585 140.502 136.906C127.107 125.599 119.135 117.33 113.557 108.955C112.1 106.767 110.753 105.022 110.564 105.077C109.008 105.531 116.11 125.618 122.399 138.552C124.983 143.867 135.679 163.211 140.126 170.614C141.364 172.674 142.82 175.43 143.362 176.738L144.347 179.116L143.023 179.502C141.757 179.87 141.623 179.771 140.005 177.253C136.13 171.225 126.032 152.339 123.122 145.676C122.629 144.545 121.507 142.161 120.629 140.378C117.203 133.418 114.235 125.518 111.434 115.902C109.866 110.521 108.44 106.163 108.265 106.218C107.535 106.448 105.765 116.16 103.496 132.393C102.977 136.113 102.342 140.573 102.085 142.304C100.852 150.634 101.481 158.736 104.249 170.174L105.925 177.101L104.572 174.483C100.498 166.603 97.85 150.475 99.0255 140.709C99.5152 136.645 99.5597 132.544 100.177 128.494C100.695 125.095 103.797 105.563 103.302 106.112C101.14 108.509 97.6921 130.502 96.7058 133.565C95.3505 137.773 94.7072 142.188 93.6262 146.469C90.9766 156.966 90.8997 161.811 93.2236 171.925C93.9184 174.948 94.3369 177.464 94.1537 177.518C93.6744 177.657 90.1497 167.511 89.4893 164.091C88.1992 157.408 88.9022 147.003 91.1247 139.885C91.6159 138.312 92.2441 135.939 92.5212 134.612C92.7978 133.285 93.5301 130.384 94.1479 128.165C94.7657 125.946 96.7993 119.077 96.5391 119.065C95.6242 119.023 92.6973 126.015 90.5505 131.085C89.3585 133.899 87.6869 137.789 86.8354 139.73C82.4007 149.839 79.5487 160.825 78.0316 173.641C77.8442 175.225 77.6387 176.371 77.5746 176.188C77.3251 175.471 76.8754 168.717 76.8808 165.761C76.8991 155.708 81.5682 140.909 88.9594 127.479C92.7129 120.659 100.054 103.292 93.5584 113.989C91.3716 116.07 85.1233 127.826 81.7089 135.645C76.8932 146.672 72.7602 153.652 68.0538 158.707C65.6569 161.28 64.0231 163.446 63.7258 164.445C63.4626 165.326 62.6985 167.999 62.0266 170.384C61.3552 172.769 60.7391 174.739 60.6584 174.763C60.4782 174.815 61.7561 166.495 61.455 165.461C61.4525 165.453 56.8978 168.907 56.6717 168.131C56.6159 167.939 57.7046 166.373 59.0917 164.65C61.3311 161.869 61.7272 161.031 62.6325 157.162C65.706 144.029 67.7913 142.617 74.2471 128.472C75.0355 126.744 80.0418 118.496 79.8991 118.418C79.0148 117.933 64.4561 137.629 59.9559 145.997C57.8892 149.84 54.7414 155.062 52.961 157.601C49.7959 162.115 48.4075 163.37 49.8518 160.412C54.3519 151.194 62.0289 136.028 63.4861 133.477C65.0509 130.737 69.8797 124.66 75.7455 118.049C78.7598 114.652 88.0353 109.533 86.8985 109.834C85.4923 110.205 67.9608 121.011 65.0231 123.551C54.9581 132.253 48.5479 138.367 44.5164 143.109C43.5673 144.225 41.7463 146.207 40.4698 147.512C35.1226 152.981 45.0535 139.292 45.5784 138.583C52.4313 129.337 53.429 128.143 57.2775 124.594C62.073 120.169 65.2144 117.862 71.1149 114.431C74.0403 112.73 92.1005 104.679 92.2625 104.384C92.983 103.071 73.3823 110.629 67.3813 113.422C65.8102 114.154 61.8547 115.966 58.5913 117.451C55.3278 118.935 49.1266 121.987 44.8107 124.233C36.4764 128.571 25.9393 132.683 25.099 131.925C24.5961 131.472 24.933 131.247 30.2886 128.471C35.0575 125.998 39.5337 123.063 44.1199 120.271C52.2967 115.294 56.5158 113.225 65.0029 110.03C70.771 107.858 91.0265 100.565 93.7947 99.3036C96.371 98.13 80.7807 102.771 72.6139 104.34C62.1546 106.35 52.5887 109.427 44.0129 113.54C36.661 117.067 27.4361 120.631 24.8051 120.961C21.91 121.324 33.1087 115.629 35.0391 114.552C53.0204 104.52 66.9123 101.263 86.598 97.461C90.6537 96.6776 89.4775 96.364 84.4256 95.7767C74.7118 94.6474 63.9457 95.4161 49.8801 98.683C45.2249 99.7643 37.9001 101.465 33.6029 102.463C29.3057 103.461 24.7824 104.305 23.5514 104.339C21.3376 104.4 21.3879 104.372 28.1408 101.799C37.9578 98.0585 52.6092 93.3154 56.4589 92.6315C62.4101 91.5745 74.2564 92.276 80.3006 92.7524C72.6743 91.5969 58.7351 90.2099 51.0189 89.8655L41.9701 90.4129L32.8668 91.9822C21.74 94.7629 15.611 96.1322 15.7957 95.7957C15.9499 95.5153 20.9235 93.3491 26.9673 90.9304C33.5963 88.2773 39.2182 86.7921 45.1467 86.1282C48.005 85.808 63.9601 87.5322 64.1647 87.4726C65.093 87.2022 50.5366 84.5112 45.7433 82.494C36.1928 78.4744 21.9567 71.5712 22.7448 71.3416C25.1228 70.6489 31.3104 73.8474 33.5526 74.639C39.3428 76.6837 48.3698 79.3482 54.5629 80.8414C56.9568 81.4184 62.4226 82.9543 66.7098 84.2542C70.997 85.5542 75.7037 86.8765 77.1697 87.1923C77.9733 87.3655 92.232 93.845 92.9119 93.0914C93.3352 92.6214 79.6325 86.0364 72.0879 82.6968C60.3542 77.5022 47.3939 70.8437 38.986 65.6896C33.0733 62.0645 28.8011 59.0201 29.0338 58.5969C29.116 58.4464 31.847 59.6667 35.1021 61.3086C47.1492 67.3863 59.5771 72.6031 72.2115 77.3083C76.6535 78.9618 91.5917 91.372 96.0885 90.0621C96.6712 89.8923 93.2555 87.6165 91.5595 86.6531C87.4819 84.3372 83.6057 81.222 79.711 78.5918C75.2851 75.6019 60.2064 65.9337 56.1126 63.4601C51.1923 60.4884 46.3382 57.4068 41.461 54.3654C40.5703 53.81 30.4016 47.4771 33.6651 48.4278C41.5831 50.7328 57.4905 58.634 67.9012 65.4328C74.3069 69.6161 83.3891 78.2846 90.7284 82.1646C95.0636 84.4565 86.6467 76.0597 85.9565 75.4035C83.9043 73.4525 81.0614 70.8397 79.6392 69.5973C74.2212 64.8642 70.7642 61.5846 67.1192 57.7198C65.0451 55.5203 60.1212 50.3166 56.1767 46.1557C52.2328 41.9952 49.0147 38.366 49.0249 38.091C49.0573 37.246 58.2649 43.7201 64.2783 48.8155C73.1252 56.313 80.9769 64.9176 89.742 72.4058C90.9834 73.4671 102.487 89.5812 98.9775 81.8437C97.9514 79.5799 90.5466 66.3721 87.7835 61.8773C84.3547 56.3022 80.8304 50.869 77.1758 45.4063C70.091 34.8145 67.5768 30.8719 67.7299 30.5928C68.3627 29.4399 77.5097 39.6386 85.0126 49.8616C86.6762 52.1283 91.8714 61.5035 92.1203 61.3272C92.6872 60.9252 88.3773 51.6791 86.6233 48.8571C82.5986 42.3844 75.0181 25.4445 76.3055 25.8007C77.1721 26.0409 83.4979 35.5734 87.5496 42.7449C88.802 44.9616 102.318 82.2227 103.117 81.99C103.389 81.9109 98.4776 63.432 96.6553 57.1097C95.1354 51.8338 93.8092 46.5984 92.6588 41.2431C91.0359 33.6833 89.3336 22.9083 89.5823 21.7671C89.6872 21.2857 90.0562 21.7186 90.6894 23.0666ZM75.5036 132.785C69.0771 144.871 64.6879 155.515 66.327 155.038C68.2612 154.475 88.0161 118.568 89.5262 112.285C90.6084 107.782 82.2639 120.968 75.5036 132.785Z" fill="#94D39E"/>
</svg>
