<svg width="258" height="266" viewBox="0 0 258 266" fill="none" xmlns="http://www.w3.org/2000/svg">
<path fill-rule="evenodd" clip-rule="evenodd" d="M161.227 29.6198C154.712 26.9953 153.62 26.8614 146.484 27.8119C142.833 28.2978 137.047 28.7125 133.625 28.7327C125.695 28.7805 119.101 30.5493 113.404 34.1584C108.787 37.0831 107.469 38.3 108.279 38.894C108.541 39.0856 112.613 39.9389 117.327 40.7901C129.507 42.9885 135.345 45.8813 143.709 53.8621C147.55 57.5268 149.843 61.789 148.765 63.2592C147.769 64.6177 144.847 63.7035 137.23 59.6512C124.967 53.1271 122.771 52.0868 118.261 50.6656C112.136 48.7368 101.87 46.9572 98.2172 47.1916C93.5035 47.4946 91.5327 48.912 84.9969 56.6982C79.9907 62.6622 77.3919 65.1711 72.4882 68.7751C71.9263 69.1878 71.8153 69.6603 72.2113 69.9507C73.2696 70.7269 92.408 72.6026 104.866 73.1509C117.044 73.6867 122.853 74.6055 130.975 77.2802C137.689 79.4915 138.674 80.2399 137.313 82.0943C136.006 83.8764 130.647 86.0339 127.664 85.9794C124.041 85.913 118.761 84.8737 109.586 82.4209C92.7004 77.9064 81.9918 76.9006 72.0316 78.8939C66.5858 79.9834 65.462 80.738 62.8797 85.0385C60.8129 88.4804 56.1307 102.044 56.354 103.942C56.532 105.458 56.5193 105.458 68.7646 104.265C95.8989 101.623 117.981 104.013 119.734 109.78C121.378 115.187 100.53 112.801 98.8932 112.658C83.1056 111.273 69.896 111.263 60.036 112.631C52.3069 113.703 50.3741 116.733 49.9251 128.483C49.7761 132.37 49.3308 137.835 48.9354 140.629C48.5401 143.423 48.4744 145.898 48.7894 146.129C49.1044 146.36 51.1746 145.751 53.3898 144.776C66.8594 138.848 76.1986 136.247 95.9684 132.921C110.263 130.516 116.138 131.004 117.595 134.717C118.387 136.733 113.791 138.077 98.9482 140.17C81.0414 142.696 72.3684 144.569 63.4158 147.843C55.5744 150.711 52.4966 152.581 51.5546 155.054C50.4409 157.978 51.3769 170.905 53.0759 176.064C54.9881 181.871 58.0294 187.498 59.4677 187.89C60.3904 188.142 61.0528 187.361 64.8214 181.576C69.7913 173.945 72.4023 171.427 80.6344 166.326C92.4201 159.023 111.222 152.255 112.302 154.927C112.76 156.058 109.07 160.429 105.29 163.235C93.902 171.684 81.6389 177.455 70.8601 187.134C67.6448 190.024 65.4265 194.646 66.0934 198.897C67.3797 207.081 72.8115 214.403 78.8036 219.728C85.3833 225.576 86.49 226.965 86.325 229.172C86.2627 230.009 86.3741 230.813 86.5729 230.959C86.7716 231.105 88.6919 230.579 90.8393 229.79C93.1748 228.932 96.938 228.345 100.205 228.328C106.774 228.295 108.15 227.448 111.425 221.419C115.85 213.275 117.891 205.756 118.12 196.749C118.281 190.397 118.675 188.064 119.858 186.452C121.898 183.67 124.137 186.614 125.19 193.465C125.949 198.402 124.037 210.072 121.497 216.002C118.092 223.955 117.839 224.742 118.525 225.245C119.375 225.869 125.064 224.742 127.989 223.371C129.673 222.582 131.003 221.203 133.935 217.205C137.536 212.296 137.754 211.812 138.616 206.851C139.614 201.092 138.913 191.93 136.668 181.423C132.934 163.944 132.479 155.945 135.123 154.244C137.59 152.657 145.02 164.581 145.78 171.349C146.716 179.675 146.773 181.29 146.423 189.446C145.992 199.498 144.924 205.537 142.761 210.149C140.997 213.912 141.048 214.827 143.018 214.719C144.728 214.626 153.427 209.834 157.332 206.835C161.494 203.637 165.168 197.968 165.811 193.751C166.791 187.322 166.628 182.696 165.209 176.706C163.202 168.234 161.508 163.921 155.791 152.727C150.381 142.137 149.03 137.711 150.686 136.015C151.58 135.1 151.979 135.171 153.709 136.553C156.794 139.018 163.824 150.636 166.347 157.441C169.928 167.095 172.679 178.72 172.686 184.219C172.689 186.387 172.438 190.545 172.128 193.46C171.818 196.374 171.766 198.906 172.012 199.087C173.213 199.968 183.943 190.366 188.134 184.661C190.791 181.043 191.103 177.56 189.418 170.347C186.809 159.181 183.656 152.866 173.679 138.819C169.102 132.375 165.085 126.402 164.753 125.545C163.334 121.888 168.68 122.496 174.365 126.637C178.576 129.705 182.634 134.568 187.992 142.968C193.369 151.396 195.328 156.376 197.079 166.067C197.913 170.687 198.833 174.641 199.123 174.853C200.456 175.831 207.862 166.508 210.903 160.025C214.684 151.965 211.625 145.046 195.388 124.923C193.996 123.198 183.755 106.985 192.769 112.824C199.784 117.37 213.38 131.352 218.067 138.841C219.829 141.656 221.483 143.928 221.744 143.888C222.003 143.848 222.754 141.621 223.412 138.94C224.07 136.259 225.909 131.541 227.501 128.457C229.092 125.373 230.717 121.247 231.113 119.289C232.029 114.758 230.803 107.299 228.422 102.908C224.36 95.4222 223.702 93.8969 223.146 90.6909C222.823 88.8331 222.962 86.249 223.458 84.8538C225.54 79.0009 222.144 74.1042 214.493 71.9269C208.99 70.3608 204.92 71.2597 195.504 76.1234C192.922 77.4571 176.7 92.8527 170.294 86.4979C164.282 82.0884 171.865 70.6308 173.228 66.1917C175.944 57.3513 178.153 47.6437 173.682 38.7286C172.164 35.6998 167.066 31.972 161.227 29.6198ZM149.49 98.2959C149.867 99.8022 148.09 102.213 145.744 103.377C143.565 104.459 137.963 104.822 134.411 104.111C132.223 103.674 131.543 103.233 129.423 100.88C124.212 95.0958 126.665 90.8405 134.731 91.6723C143.306 92.5563 148.654 94.9566 149.49 98.2959ZM133.336 120.815C131.162 123.778 122.48 124.076 121.346 121.226C120.77 119.778 122.032 117.542 123.693 117.069C126.221 116.349 130.904 116.939 132.613 118.192C134.134 119.308 134.218 119.612 133.336 120.815Z" fill="#DCEFE0"/>
</svg>
