<svg width="340" height="448" viewBox="0 0 340 448" fill="none" xmlns="http://www.w3.org/2000/svg">
<path fill-rule="evenodd" clip-rule="evenodd" d="M325.121 73.1309C323.668 74.2917 318.67 76.3246 314.014 77.6492C305.718 80.0093 297.609 83.2331 286.848 88.4504C283.886 89.8866 281.195 90.7012 280.869 90.2615C280.113 89.2397 254.44 84.6551 243.195 83.5332C235.662 82.7827 233.747 82.2429 227.443 79.0976C210.406 70.5988 205.814 68.4976 202.382 67.634C197.782 66.4761 198.773 67.3404 210.928 75.084C215.978 78.3012 220.56 81.468 221.108 82.1207C222.184 83.4011 220.387 83.6054 209.309 83.4594C198.106 83.3128 203.695 84.8325 226.389 88.1045C236.523 89.5659 239.446 90.3883 251.369 95.1349C258.795 98.0913 264.772 100.759 264.651 101.063C264.53 101.367 262.063 102.757 259.168 104.149L253.905 106.683L237.032 100.034C221.164 93.7836 202.939 88.6244 198.457 89.117C197.664 89.2037 200.469 90.9738 204.69 93.0499C211.48 96.3903 220.694 99.8341 242.888 107.325C246.407 108.512 249.173 109.75 249.035 110.076C248.898 110.4 246.944 111.63 244.694 112.807L240.604 114.948L232.782 110.708C220.235 103.908 191.051 93.9118 174.643 90.7927C155.259 87.1079 150.628 87.0138 158.755 90.4701C189.741 103.648 217.475 112.982 235.378 116.259C237.85 116.711 238.096 116.98 237.169 118.224C236.579 119.017 235.369 120.116 234.481 120.667C232.038 122.181 218.684 121.541 213.207 119.647C198.083 114.416 188.035 111.33 181.097 109.784C173.412 108.07 150.84 104.886 142.237 104.301L137.851 104.003L144.309 106.64C150.252 109.067 180.906 118.998 190.415 121.579C194.334 122.642 194.086 122.727 183.536 123.957C174.421 125.019 171.443 124.933 165.723 123.442C156.704 121.09 135.752 116.99 130.829 116.612L126.943 116.316L130.224 117.964C132.028 118.87 138.235 121.011 144.018 122.722C149.799 124.433 156.202 126.498 158.246 127.312L161.961 128.791L159.363 129.914C156.995 130.938 142.767 130.366 131.287 128.786C126.576 128.138 109.019 129.186 113.036 129.876C114.324 130.098 118.347 130.742 121.975 131.309C133.703 133.142 136.02 133.606 138.892 134.705C140.444 135.299 141.585 136.073 141.428 136.424C140.916 137.562 124.066 141.538 118.263 141.89C115.16 142.078 109.204 142.895 105.028 143.704C100.851 144.514 95.9036 145.346 94.0316 145.552C87.9178 146.227 89.9435 147.181 99.9329 148.33C117.299 150.328 118.444 150.959 106.422 151.908C100.543 152.372 95.8448 153.016 95.9834 153.339C96.1224 153.662 101.416 154.332 107.748 154.827C114.079 155.324 126.942 156.799 136.332 158.106C164.096 161.971 169.199 162.557 177.255 162.806C181.469 162.937 184.846 163.226 184.757 163.449C184.331 164.518 178.973 169.689 178.484 169.503C178.177 169.387 173.136 168.311 167.282 167.111C161.429 165.911 154.152 164.389 151.111 163.728C141.71 161.684 112.051 160.056 101.243 160.99C94.4547 161.577 82.5148 163.794 82.2251 164.521C81.8353 165.5 82.6527 165.71 94.7278 167.732C125.918 172.959 143.03 173.952 172.041 172.222C176.247 171.971 176.648 172.815 173.774 175.866C170.283 179.571 169.671 179.722 162.383 178.686C149.237 176.815 120.373 176.086 106.839 177.282C96.7731 178.172 77.3006 182.093 76.7559 183.34C76.6229 183.646 80.1818 184.016 84.6665 184.161C89.1504 184.306 97.1324 184.619 102.403 184.855C107.673 185.091 116.117 185.097 121.168 184.869C126.218 184.64 130.559 184.537 130.815 184.639C131.071 184.741 138.836 184.219 148.071 183.48C157.305 182.74 165.337 182.325 165.917 182.555C167.074 183.016 166.335 185.582 164.722 186.705C164.162 187.095 160.235 187.077 155.993 186.667C136.311 184.763 114.732 186.758 95.7151 192.239C93.2275 192.956 87.8539 194.346 83.7744 195.328C79.695 196.309 75.9834 197.39 75.5258 197.729C73.4548 199.27 110.506 196.252 133.77 192.984C142.117 191.812 149.099 190.914 149.285 190.989C149.473 191.063 152.07 190.743 155.057 190.276C158.044 189.809 160.84 189.567 161.269 189.738C161.699 189.909 161.045 191.214 159.817 192.638C157.871 194.898 156.37 195.319 148.075 195.943C128.999 197.379 102.841 201.758 91.4687 205.42C82.4577 208.321 58.7453 218.562 60.7631 218.68C61.6243 218.732 82.9858 214.296 108.232 208.823C145.027 200.847 154.061 199.211 153.754 200.577C152.647 205.507 144.896 208.503 125.601 211.46C109.144 213.982 91.552 218.237 79.8287 222.532C74.4869 224.489 59.0003 232.489 59.2822 233.147C59.4244 233.478 64.5788 232.661 70.7366 231.33C85.2952 228.182 87.1885 227.787 89.6748 227.373C90.818 227.181 88.436 228.815 84.3809 231.002C76.5139 235.244 60.8457 244.688 56.4877 247.814C53.9054 249.667 53.8919 249.7 55.8445 249.44C56.9418 249.294 74.5808 242.121 95.0432 233.5C128.419 219.44 141.453 214.798 142.263 216.684C142.411 217.029 141.762 218.528 140.822 220.016C139.41 222.248 137.665 223.061 130.798 224.682C120.929 227.012 95.6987 237.765 82.5897 245.229C74.1048 250.06 60.5421 259.214 60.0544 260.439C59.6405 261.479 70.034 257.833 84.9768 251.699C109.125 241.786 115.266 238.978 125.111 233.351C130.147 230.471 134.36 228.33 134.473 228.592C134.585 228.854 133.632 230.597 132.356 232.466C130.559 235.097 128.783 236.276 124.483 237.697C109.268 242.721 91.65 252.709 74.8559 265.834C65.8477 272.874 53.7369 284.426 54.8861 284.884C55.0597 284.953 57.6836 283.326 60.715 281.266C68.0834 276.262 92.8979 262.016 93.1899 262.698C93.4607 263.328 76.8846 274.897 73.3914 277.196C70.06 279.389 64.1994 284.027 58.6258 288.882L53.8812 293.015L58.9669 291.025C61.7631 289.93 80.9927 278.297 82.2197 277.681C85.4917 276.04 68.9065 287.151 60.5155 295.724C56.3342 299.996 52.9739 303.631 53.0471 303.802C53.7438 305.426 64.0612 299.111 88.89 281.861C100.003 274.141 110.265 267.162 111.697 266.352L114.3 264.879L112.381 269.756C110.644 274.169 110.016 274.857 105.757 277.019C92.5549 283.717 73.5872 298.451 62.5651 310.57C57.9091 315.69 57.4638 317.022 61.6176 313.407C63.0315 312.177 70.8762 306.38 79.0489 300.525C87.2217 294.671 97.0997 287.435 101 284.444C104.901 281.455 108.209 279.282 108.354 279.617C108.497 279.952 107.717 282.174 106.621 284.553C104.857 288.383 103.869 289.285 98.0317 292.401C89.776 296.809 73.9183 308.389 66.8833 315.147C60.5518 321.229 54.7983 327.931 55.1694 328.794C55.3147 329.133 61.0992 325.544 68.024 320.818C79.5336 312.961 92.8645 302.292 90.3528 305.026C83.4018 312.591 57.661 344.652 60.0425 343.448C60.5349 343.199 65.4634 338.7 70.9959 333.45C79.5902 325.295 89.2649 314.507 97.526 303.867C99.2546 301.639 99.6157 301.499 99.6505 303.039C99.6778 304.265 96.4291 308.746 90.0518 316.279C84.75 322.541 78.3364 330.677 75.7994 334.359C71.2625 340.942 61.1732 359.496 61.5948 360.478C61.9177 361.231 70.6808 350.115 82.1658 334.385C98.1109 312.545 97.0705 313.821 96.7177 316.545C96.5487 317.85 94.155 322.012 91.3161 325.937C88.5128 329.815 83.6791 337.106 80.5757 342.14C74.1498 352.563 64.4696 373.005 65.7243 373.505C66.171 373.683 68.735 370.526 71.4239 366.49L80.3878 353.044L71.6839 372.032C69.1385 379.117 67.2066 385.262 67.391 385.689C67.5746 386.116 69.1078 383.713 70.7967 380.351C72.4865 376.989 75.6349 371.102 77.7926 367.269C81.476 360.728 84.8773 354.779 84.1715 358.267C83.7583 360.311 79.2701 371.42 78.1167 375.929C74.9913 388.157 74.6379 390.101 75.4795 390.436C75.902 390.604 77.787 386.875 79.6684 382.149C84.5803 369.812 86.1969 361.422 85.4775 372.587C84.7962 383.174 84.3854 396.956 86.1112 402.196L87.2523 405.661L87.5041 402.751C87.6438 401.15 87.9677 396.311 88.2246 391.997C89.1893 375.823 90.6366 369.178 91.5454 376.754C92.8022 387.238 97.7057 404.392 98.7571 401.988C99.0091 401.412 98.6784 394.934 98.0231 387.591C97.3677 380.248 94.5139 367.49 94.614 367.239C94.714 366.988 98.9056 377.107 100.996 381.726C109.141 399.719 110.937 399.295 105.667 380.625C104.219 375.494 98.4059 363.229 98.6711 363.334C98.9364 363.44 105.18 373.439 106.625 375.589C108.071 377.739 109.982 380.352 110.872 381.394C113.473 384.444 112.647 381.929 105.079 363.781C97.3031 345.134 97.3652 345.333 98.458 342.535C99.1223 340.836 99.595 341.603 101.336 347.194C103.609 354.498 105.354 358.214 109.213 363.971C113.457 370.305 113.691 368.862 109.9 359.728C105.161 348.309 98.458 327.411 99.0544 325.913C99.9266 323.722 100.771 325.333 102.679 332.828C104.603 340.383 108.771 348.884 112.805 353.48C115.856 356.956 117.578 357.368 115.82 354.203C115.019 352.758 112.32 347.07 109.823 341.561C107.326 336.052 104.12 329.275 102.696 326.5C101.273 323.725 100.19 320.363 100.291 319.027C100.459 316.764 100.545 316.729 101.541 318.521C102.128 319.578 103.241 321.757 104.013 323.361C110.803 337.482 119.127 350.927 119.889 349.011C120.372 347.8 108.874 326.434 104.499 320.41C101.052 315.665 100.605 314.476 101.46 312.328C102.457 309.824 102.496 309.867 107.922 319.354C113.05 328.319 120.889 340.961 122.934 343.567C125.014 346.215 123.18 341.068 118.5 331.122C114.184 321.95 111.43 317.392 104.772 308.409C103.374 306.522 103.244 305.332 104.18 302.98C104.84 301.324 105.638 300.071 105.953 300.196C106.269 300.322 108.184 303.713 110.211 307.732C116.228 319.667 126.849 336.561 127.424 335.113C127.98 333.714 114.544 308.761 109.152 301.18C106.655 297.668 106.546 297.037 107.873 293.705L109.323 290.064L112.379 296.767C114.061 300.453 115.557 303.768 115.703 304.132C117.52 308.629 127.07 326.19 128.431 327.538C129.422 328.518 130.685 330.16 131.24 331.188C132.4 333.339 133.169 332.256 132.381 329.579C131.13 325.335 118.67 301.393 114.906 296.004C112.648 292.769 110.479 289.517 110.086 288.775C109.361 287.407 111.042 281.98 112.368 281.407C112.767 281.234 114.085 284.15 115.297 287.885C117.525 294.748 122.431 303.956 129.199 313.981C137.009 325.549 140.061 328.904 138.276 323.962C137.481 321.763 128.46 304.985 119.412 288.875C114.812 280.686 113.524 276.837 115.013 275.729C116.027 274.974 116.785 276.011 118.711 280.789C123.24 292.025 130.624 303.898 138.228 312.169C142.262 316.557 145.88 320.011 146.267 319.842C146.655 319.675 146.856 319.36 146.713 319.143C146.569 318.925 144.268 315.184 141.597 310.829C138.927 306.474 132.247 296.381 126.753 288.4C120.03 278.633 116.968 273.38 117.385 272.331C117.866 271.119 119.292 272.723 123.78 279.523C131.25 290.842 139.384 300.061 147.934 306.903C151.76 309.964 149.815 306.856 142.104 297.586C120.172 271.222 118.965 269.626 119.445 267.607C120.049 265.069 120.833 265.411 123.573 269.401C127.709 275.426 135.901 284.867 142.279 290.961C158.005 305.983 157.69 302.934 141.7 285.372C135.488 278.548 128.66 271.257 126.529 269.171C121.553 264.301 121.061 263.157 122.791 260.481C124.465 257.891 125.228 258.052 127.502 261.474C132.935 269.649 150.795 290.969 154.786 294.044L156.702 295.519L155.664 293.097C153.994 289.194 140.299 271.011 132.587 262.451C124.984 254.016 125.078 254.367 129.074 249.409C129.568 248.795 131.933 251.797 135.524 257.596C142.972 269.621 150.623 279.231 158.002 285.83C161.295 288.776 164.221 291.278 164.503 291.39C166.369 292.133 159.411 281.001 152.395 272.016C151.769 271.215 148.971 267.508 146.177 263.778C143.382 260.048 138.78 254.842 135.949 252.212C133.118 249.58 130.714 247.083 130.607 246.661C130.329 245.57 134.41 237.255 135.089 237.531C135.398 237.658 138.047 242.338 140.974 247.933C149.013 263.293 152.737 269.245 157.966 275.083C163.181 280.906 168.141 285.286 169.067 284.886C169.394 284.745 167.385 281.078 164.605 276.736C161.824 272.395 158.544 267.274 157.316 265.356C149.827 253.662 141.619 241.584 139.407 239.002C137.995 237.356 136.782 235.678 136.711 235.275C136.641 234.871 137.711 232.852 139.089 230.785L141.597 227.029L147.038 238.918C150.031 245.458 154.846 254.183 157.738 258.307C163.601 266.668 173.756 278.557 174.69 278.153C175.749 277.695 162 252.832 156.073 244.49C155.042 243.037 151.819 237.715 148.912 232.661L143.626 223.474L145.553 219.869C146.612 217.887 147.733 216.155 148.045 216.02C148.355 215.886 150.775 220.972 153.422 227.322C156.069 233.672 160.127 242.036 162.439 245.907C167.538 254.445 181.572 274.108 182.926 274.612C183.462 274.811 181.593 270.022 178.773 263.969C175.952 257.916 166.484 239.831 167.196 240.116C167.909 240.401 178.943 257.946 182.252 262.773C185.56 267.6 188.54 271.431 188.872 271.288C189.204 271.145 186.927 265.55 183.811 258.856C180.696 252.161 178.429 246.786 178.775 246.912C179.121 247.037 181.363 249.891 183.758 253.254C186.152 256.616 189.139 260.543 190.394 261.978C192.577 264.478 192.665 264.508 192.452 262.683C191.976 258.625 176.444 224.87 169.096 211.923C163.057 201.282 161.513 197.774 162.031 195.861C162.694 193.411 165.46 190.401 166.619 190.866C166.958 191.003 169.203 196.921 171.608 204.018C174.013 211.115 178.17 221.041 180.845 226.076C186.495 236.709 197.656 255.41 198.569 255.774C199.357 256.088 196.859 247.891 192.526 235.941C189.043 226.335 179.826 207.856 172.282 195.353C167.568 187.538 167.555 187.89 172.733 182.509C175.477 179.658 176.145 179.852 177.098 183.776C179.973 195.625 188.378 220.62 191.918 227.854C196.772 237.771 205.529 253.527 206.374 253.863C207.552 254.332 200.263 234.959 182.48 190.352L177.434 177.694L180.366 174.487C181.979 172.723 183.645 171.391 184.068 171.528C184.49 171.664 185.7 176.457 186.755 182.177C190.008 199.802 193.411 211.011 199.226 223.261C204.538 234.448 212.217 247.851 212.667 246.72C212.783 246.43 212.091 243.784 211.129 240.841C208.547 232.936 203.864 213.424 204.484 213.156C204.779 213.029 207.767 219.156 211.124 226.773C214.481 234.389 217.602 240.947 218.057 241.346C218.513 241.745 217.686 238.255 216.22 233.589C212.398 221.435 208.164 205.23 208.554 204.25C208.737 203.79 210.258 206.478 211.932 210.223C216.788 221.082 227.325 238.914 228.567 238.378C228.829 238.265 227.672 234.494 225.998 229.998C221.359 217.539 211.4 186.732 208.828 176.887C207.569 172.063 205.659 164.884 204.586 160.934C203.511 156.983 202.851 153.203 203.118 152.531C203.385 151.861 205.067 150.024 206.856 148.451L210.109 145.591L210.507 152.705C211.452 169.588 218.892 194.214 229.726 216.314C235.431 227.952 236.934 229.384 234.376 220.743C230.05 206.127 226.953 194.182 225.996 188.409L225.017 182.499L229.661 193.092C232.215 198.918 234.964 204.859 235.769 206.295C236.574 207.729 237.604 209.625 238.06 210.505C238.514 211.387 239.93 213.768 241.208 215.798C244.135 220.452 244.952 218.945 243.159 212.197C242.438 209.485 241.4 205.188 240.85 202.649C239.579 196.773 234 179.317 227.878 162.06C225.255 154.667 222.293 146.031 221.295 142.868L219.48 137.117L222.958 134.058L226.437 131L227.117 139.492C228.077 151.47 233.5 170.517 241.618 190.43C245.445 199.816 248.838 207.384 249.158 207.245C249.838 206.951 246.179 189.58 243.369 179.769C240.029 168.103 240.781 169.26 248.189 187.177C252.142 196.737 255.772 204.387 256.257 204.178C256.742 203.968 256.573 202.335 255.882 200.548C255.191 198.761 252.347 187.534 249.564 175.599C246.78 163.665 242.304 147.517 239.618 139.716C234.784 125.67 234.758 125.514 236.989 123.945C238.229 123.073 239.512 122.724 239.841 123.169C240.172 123.615 241.07 128.735 241.838 134.547C243.383 146.233 245.284 153.105 251.47 169.371C255.145 179.033 263.343 193.943 264.665 193.372C264.933 193.257 263.848 188.87 262.253 183.626C260.658 178.38 258.55 170.876 257.566 166.949C256.583 163.022 254.043 155.236 251.922 149.647C246.967 136.59 242.383 121.792 242.897 120.516C243.117 119.97 244.624 118.765 246.246 117.84L249.194 116.159L251.842 127.901C256.255 147.472 262.622 166.241 268.632 177.4C272.769 185.08 274.659 186.204 271.859 179.319C270.72 176.519 268.905 170.49 267.826 165.92C265.085 154.306 260.655 140.717 256.359 130.744C254.351 126.08 252.525 120.541 252.302 118.434C251.91 114.706 251.966 114.556 254.458 112.804C256.824 111.139 257.04 111.151 257.329 112.952C259.057 123.74 264.284 145.816 267.193 154.628C272.082 169.43 275.392 177.825 275.554 175.828C275.885 171.75 269.342 143.546 264.382 127.665L258.922 110.187L261.327 108.666C262.649 107.829 264.138 107.293 264.637 107.474C265.135 107.655 266.673 111.397 268.055 115.789C269.533 120.487 272.766 127.25 275.907 132.213C281.546 141.125 284.455 147.162 288.626 158.611C290.029 162.463 291.735 166.466 292.416 167.507C293.63 169.36 293.646 169.317 293.198 165.343C292.946 163.112 292.221 159.611 291.585 157.565C290.05 152.62 291.625 153.302 298.18 160.423C300.972 163.457 303.528 165.823 303.858 165.68C304.189 165.537 303.707 163.589 302.788 161.351C301.098 157.234 298.328 152.897 290.06 141.422C286.239 136.12 284.651 132.306 280.224 117.816L274.946 100.533L277.828 99.0219L280.711 97.511L282.566 105.161C286.286 120.493 297.254 147.014 299.476 146.053C299.878 145.88 298.718 141.676 296.899 136.712C295.08 131.748 291.969 122.729 289.984 116.671C288 110.613 285.599 103.846 284.651 101.633C283.5 98.9515 283.296 97.156 284.038 96.248C285.043 95.0191 294.747 90.8716 317.488 81.9512C326.973 78.2309 329.857 75.9057 328.607 72.9904C327.826 71.1688 327.561 71.1799 325.121 73.1309ZM277.802 93.1733C277.696 93.4393 275.457 94.825 272.827 96.2518L268.044 98.8452L263.517 96.3774C256.019 92.2902 256.405 91.6961 266.452 91.8584C275.822 92.0096 278.158 92.2801 277.802 93.1733ZM272.321 104.427C272.141 104.878 272.908 108.581 274.027 112.656C277.993 127.113 276.828 127.828 270.771 114.652C266.78 105.969 266.731 105.711 268.847 104.352C271.071 102.923 272.904 102.963 272.321 104.427ZM228.996 124.617C228.562 125.135 227.416 125.407 226.451 125.225C224.933 124.938 224.927 124.767 226.411 123.954C228.441 122.844 230.125 123.276 228.996 124.617ZM235.249 148.647C236.267 153.734 236.783 157.614 236.395 157.268C235.645 156.599 231.336 143.469 229.482 136.202C228.31 131.608 228.935 128.517 231.239 127.522C232.28 127.072 232.72 128.474 233.011 133.16C233.223 136.589 234.23 143.559 235.249 148.647ZM218.789 132.711L213.767 137.098L203.208 133.45C192.806 129.856 190.461 128.712 194.078 128.991C196.547 129.182 204.711 128.575 213.051 127.582C216.808 127.134 220.765 127.118 221.846 127.547C223.798 128.319 223.778 128.352 218.789 132.711ZM218.986 148.734C219.526 154.055 220.56 161.488 221.283 165.251C222.007 169.015 222.392 172.183 222.139 172.292C221.768 172.453 219.136 165.096 216.758 157.244C216.52 156.459 215.235 153.113 213.904 149.809L211.481 143.802L214.249 141.234C215.772 139.822 217.239 138.755 217.511 138.863C217.782 138.971 218.446 143.413 218.986 148.734ZM210.024 139.907C209.23 139.996 205.966 139.279 202.772 138.313L196.964 136.559L203.618 137.446C209.901 138.282 213.204 139.552 210.024 139.907ZM184.66 134.777C171.775 132.671 170.876 132.439 171.722 131.434C172.561 130.438 181.949 132.206 188.255 134.548C191.582 135.783 191.034 135.818 184.66 134.777ZM202.4 146.851C198.206 150.571 197.413 150.898 194.296 150.198C192.396 149.772 187.508 148.744 183.434 147.913C179.36 147.083 173.14 145.736 169.611 144.919C163.686 143.547 146.652 141.172 144.08 141.359C143.468 141.403 144.821 140.744 147.086 139.895C152.472 137.874 155.539 137.842 167.851 139.673C187.461 142.591 192.89 143.109 199.286 142.668C202.824 142.424 206.019 142.338 206.385 142.476C206.751 142.614 204.958 144.583 202.4 146.851ZM191.078 157.303C187.127 161.363 187.009 161.375 178.129 158.724C175.177 157.843 162.48 155.096 160.224 154.54C156.53 153.627 165.798 154.981 177.027 153.95C188.731 152.875 194.209 152.67 194.566 153.294C194.65 153.441 193.08 155.245 191.078 157.303ZM201.319 157.05C201.026 157.786 201.189 163.58 201.68 169.925C202.171 176.271 202.312 181.576 201.991 181.714C201.672 181.853 201.341 181.751 201.257 181.487C200.601 179.428 196.871 165.626 196.201 162.782C195.409 159.418 195.496 159.104 197.765 157.132C200.335 154.897 202.193 154.854 201.319 157.05ZM195.148 175.765C195.971 183.069 196.477 189.118 196.273 189.206C195.984 189.331 188.301 172.227 187.098 168.783C186.796 167.917 192.292 161.943 193.097 162.264C193.402 162.385 194.326 168.46 195.148 175.765ZM153.887 149.073C153.814 149.256 145.077 147.142 143.798 146.897C142.519 146.652 134.917 146.446 135.081 146.035C135.244 145.625 143.039 145.345 144.227 145.818C145.415 146.291 153.959 148.891 153.887 149.073ZM161.167 206.946C162.006 210.691 167.665 221.98 167.356 222.114C166.706 222.394 156.82 207.46 156.064 205.122C155.548 203.523 157.856 199.416 159.01 199.881C159.356 200.021 160.327 203.201 161.167 206.946ZM157.008 217.723C158.575 222.527 164.051 234.661 163.823 234.759C163.171 235.039 150.244 212.421 150.574 211.594C151.085 210.309 152.985 208.52 153.584 208.758C153.9 208.884 155.441 212.918 157.008 217.723ZM145.582 211.56C145.4 212.019 144.191 212.507 142.898 212.644C140.559 212.892 140.559 212.887 142.933 211.69C145.583 210.353 146.072 210.328 145.582 211.56ZM123.948 246.891C122.469 249.303 119.852 250.892 111.038 254.731C104.958 257.38 99.8952 259.343 99.7886 259.093C99.3795 258.139 123.835 243.082 125.025 243.556C125.453 243.727 124.969 245.228 123.948 246.891ZM111.029 261.892C107.219 263.856 92.8798 273.406 93.016 273.064C93.2947 272.364 118.769 254.113 119.222 254.293C121.457 255.183 111.214 261.797 111.029 261.892ZM91.657 339.465C91.1804 339.966 91.8689 333.904 92.3432 332.713C92.8174 331.522 94.6536 327.878 94.656 328.568C95.6234 329.502 92.1342 338.966 91.657 339.465Z" fill="#DCEFE0"/>
</svg>
