<svg width="163" height="18" viewBox="0 0 163 18" fill="none" xmlns="http://www.w3.org/2000/svg">
<g clip-path="url(#clip0_121_923)">
<path d="M28.3713 14.6218V9.05786C28.3713 8.04974 28.141 7.20322 27.6879 6.53371C27.2426 5.85649 26.6207 5.35628 25.8375 5.01767C25.0543 4.67907 24.156 4.50977 23.1501 4.50977C22.3132 4.50977 21.5531 4.6175 20.8697 4.83298C20.194 5.04846 19.6182 5.34859 19.1268 5.73337C18.6354 6.11045 18.2668 6.5491 18.0134 7.04162C17.7601 7.54183 17.6295 8.06513 17.6295 8.61921H21.0847C21.0847 8.2883 21.1615 8.00357 21.3151 7.765C21.4686 7.51874 21.6836 7.32635 21.96 7.20322C22.2364 7.0647 22.5743 6.99544 22.9582 6.99544C23.4035 6.99544 23.7721 7.08009 24.0485 7.2494C24.3403 7.4187 24.5476 7.65726 24.6858 7.95739C24.824 8.25752 24.8931 8.61152 24.8931 9.02708V9.83512H23.3421C22.3516 9.83512 21.4763 9.92746 20.7238 10.1276C19.9714 10.3122 19.3418 10.5893 18.8427 10.9587C18.3436 11.3204 17.9674 11.7667 17.714 12.29C17.4606 12.8133 17.3301 13.4213 17.3301 14.1062C17.3301 14.8603 17.522 15.5299 17.9059 16.1224C18.2975 16.7073 18.8273 17.169 19.4876 17.5076C20.1633 17.8385 20.9081 18.0001 21.7297 18.0001C22.3746 18.0001 22.9351 17.9078 23.4112 17.7077C23.8796 17.5076 24.2865 17.2537 24.6243 16.9535C24.7702 16.815 24.9008 16.6765 25.0313 16.5303C25.1157 17.0151 25.2386 17.4307 25.3922 17.7616H28.8857V17.5538C28.7168 17.2152 28.5863 16.8227 28.5018 16.3764C28.4174 15.9223 28.3713 15.3375 28.3713 14.6218V14.6218ZM23.8488 15.0989C23.4649 15.3067 23.0119 15.4144 22.4898 15.4144C22.1443 15.4144 21.8448 15.3529 21.5915 15.222C21.3381 15.0835 21.1385 14.8988 21.0002 14.668C20.862 14.4294 20.7929 14.16 20.7929 13.8599C20.7929 13.5598 20.839 13.2904 20.9388 13.0442C21.0463 12.7979 21.1999 12.5824 21.4149 12.3978C21.6299 12.2054 21.9063 12.0591 22.2441 11.9514C22.582 11.8437 22.9735 11.7975 23.4342 11.7975H24.8854V14.0523C24.8393 14.1447 24.8009 14.237 24.7318 14.337C24.5245 14.6449 24.2251 14.8988 23.8412 15.1066L23.8488 15.0989Z" fill="#3A375F"/>
<path d="M37.0938 15.2143C36.9248 15.2296 36.7329 15.2373 36.5179 15.2373C36.2108 15.2373 35.9651 15.1989 35.7654 15.1296C35.5658 15.0526 35.4122 14.9064 35.3124 14.7063C35.2203 14.5063 35.1665 14.2138 35.1665 13.8444V7.20314H37.4009V4.74824H35.1665V2.7243C35.1665 2.17022 35.5197 1.847 35.7194 1.75466C35.9574 1.63922 35.9728 1.54688 35.8115 1.54688H31.7114V4.74824H29.8379V7.20314H31.7114V14.1907C31.7114 15.1065 31.8649 15.8453 32.1644 16.4071C32.4715 16.9689 32.9015 17.3767 33.462 17.6307C34.0302 17.8769 34.6905 18.0001 35.4506 18.0001C35.8653 18.0001 36.2492 17.9693 36.587 17.9154C36.9325 17.8615 37.2473 17.7846 37.5468 17.6845L37.5314 15.1373C37.4086 15.1604 37.2627 15.1835 37.0861 15.2066L37.0938 15.2143Z" fill="#3A375F"/>
<path d="M59.4149 4.50977C58.8083 4.50977 58.2709 4.65598 57.7948 4.94072C57.3264 5.23315 56.9195 5.64102 56.597 6.16432C56.5586 6.22588 56.5356 6.30284 56.4972 6.3644L56.382 4.74063H53.1342V16.5534C53.1342 17.1228 52.781 17.4461 52.5813 17.5461C52.3433 17.6615 52.328 17.7539 52.4892 17.7539H56.5893V9.21178C56.7045 8.95013 56.8427 8.71156 57.0347 8.51148C57.2727 8.27291 57.5721 8.08822 57.9253 7.97278C58.2862 7.84196 58.7085 7.78039 59.1999 7.78039C59.3919 7.78039 59.6069 7.79579 59.8372 7.81887C60.0752 7.83426 60.2825 7.85735 60.4515 7.88044L60.5129 4.67137C60.3824 4.6252 60.2211 4.58672 60.0215 4.56363C59.8219 4.53285 59.6222 4.51746 59.4303 4.51746L59.4149 4.50977Z" fill="#3A375F"/>
<path d="M73.1882 10.8817C73.1882 9.92747 73.0654 9.06556 72.8197 8.28061C72.574 7.49566 72.2054 6.81844 71.714 6.26436C71.238 5.70258 70.6391 5.27163 69.925 4.96381C69.2109 4.65598 68.397 4.50977 67.4756 4.50977C66.5543 4.50977 65.6866 4.67137 64.9342 5.00228C64.1817 5.3255 63.5444 5.78723 63.0146 6.38749C62.4925 6.98775 62.0932 7.69574 61.8168 8.51917C61.5404 9.3426 61.3945 10.2353 61.3945 11.228V11.7051C61.3945 12.5671 61.5404 13.3905 61.8399 14.16C62.1393 14.9219 62.5616 15.5914 63.1144 16.1686C63.6749 16.7458 64.3506 17.1998 65.1568 17.5307C65.9554 17.8539 66.8614 18.0078 67.8672 18.0078C68.7042 18.0078 69.4566 17.8924 70.1093 17.6692C70.7619 17.4384 71.3224 17.1382 71.7908 16.7765C72.2592 16.4149 72.6354 16.0378 72.9041 15.6453L71.2226 13.8137C70.831 14.314 70.3626 14.6833 69.8175 14.9296C69.28 15.1682 68.7042 15.2913 68.0745 15.2913C67.5678 15.2913 67.1225 15.2066 66.7155 15.0296C66.3239 14.8526 65.9861 14.6064 65.7097 14.2832C65.4409 13.96 65.2259 13.5829 65.0724 13.1442C64.9879 12.8903 64.9342 12.6132 64.9035 12.3285H73.1882V10.8817ZM69.7945 10.0198H64.9495C64.9649 9.88899 64.9802 9.75816 65.0033 9.63503C65.1108 9.14251 65.2567 8.71926 65.4563 8.35756C65.6636 7.99587 65.9323 7.71883 66.2625 7.51874C66.5927 7.31866 66.9842 7.21862 67.4373 7.21862C67.9747 7.21862 68.4124 7.33405 68.7579 7.55722C69.1034 7.78039 69.3568 8.08822 69.5257 8.473C69.7023 8.85008 69.7868 9.28104 69.7868 9.75816V10.0198H69.7945Z" fill="#3A375F"/>
<path d="M15.6182 0.253906H11.3876V11.9974L4.34669 0.253906H0.753303V16.5609C0.753303 17.1303 0.400107 17.4536 0.200474 17.5536C-0.0375494 17.669 -0.0529058 17.7614 0.108336 17.7614H4.34669V6.0256L11.3645 17.7614H14.9656V1.45442C14.9656 0.884945 15.3188 0.56173 15.5184 0.461687C15.7565 0.346253 15.7718 0.253906 15.6106 0.253906H15.6182Z" fill="#3A375F"/>
<path d="M51.1379 4.74805H47.0378V13.9443C46.8612 14.306 46.6155 14.6061 46.2853 14.837C45.8784 15.1294 45.3178 15.2679 44.6038 15.2679C44.3274 15.2679 44.0663 15.2294 43.836 15.1602C43.6133 15.0909 43.4137 14.9678 43.2447 14.7985C43.0758 14.6292 42.9453 14.4137 42.8455 14.1521C42.761 13.8904 42.7149 13.5595 42.7149 13.1747V5.84082C42.761 5.3483 43.0681 5.04817 43.2524 4.96352C43.4904 4.84809 43.5058 4.75574 43.3446 4.75574H39.2598V13.1593C39.2598 14.0212 39.3673 14.7677 39.5746 15.3834C39.7896 15.9913 40.089 16.4915 40.4652 16.884C40.8491 17.2688 41.3022 17.5535 41.832 17.7382C42.3694 17.9152 42.953 17.9999 43.5826 17.9999C44.4041 17.9999 45.1259 17.8536 45.7325 17.5535C46.3007 17.2688 46.769 16.8763 47.1529 16.3838L47.2451 17.7536H50.4929V5.94856C50.4929 5.37909 50.8461 5.05587 51.0458 4.95583C51.2838 4.84039 51.2991 4.74805 51.1379 4.74805V4.74805Z" fill="#3A375F"/>
<path d="M80.083 5.9487C80.2365 5.2484 80.4592 4.67123 80.7663 4.21719C81.0734 3.76315 81.4497 3.41685 81.895 3.19367C82.3403 2.9705 82.8701 2.85507 83.469 2.85507C84.2676 2.85507 84.9125 2.98589 85.3886 3.23985C85.88 3.48611 86.2409 3.86319 86.4789 4.35571C86.7169 4.84823 86.8551 5.44079 86.9012 6.14878H90.5022C90.3871 4.96366 90.0569 3.90167 89.4964 2.9782C88.9436 2.04703 88.1681 1.31595 87.1546 0.792646C86.1564 0.26165 84.9279 0 83.469 0C82.3711 0 81.3806 0.200086 80.4899 0.592561C79.5992 0.985036 78.8391 1.54681 78.2018 2.2779C77.5722 3.00898 77.0808 3.89397 76.7353 4.93288C76.3974 5.96409 76.2285 7.12612 76.2285 8.41129V9.62719C76.2285 10.9124 76.3898 12.0667 76.7199 13.1056C77.0501 14.1368 77.5261 15.0218 78.1481 15.7529C78.7777 16.484 79.5378 17.0457 80.4285 17.4382C81.3191 17.823 82.3173 18.0154 83.4383 18.0154C84.8665 18.0154 86.095 17.7614 87.1085 17.2458C88.1297 16.7302 88.9282 16.0222 89.4964 15.1065C90.0723 14.1907 90.3948 13.1441 90.4715 11.9667H86.8858C86.8398 12.6746 86.6785 13.2595 86.4175 13.7366C86.1641 14.2061 85.7878 14.5678 85.3041 14.8063C84.8127 15.0449 84.1985 15.168 83.446 15.168C82.8087 15.168 82.2559 15.0526 81.8029 14.8217C81.3575 14.5832 80.989 14.2292 80.6972 13.7597C80.4208 13.2903 80.2058 12.7131 80.0753 12.0282C79.9371 11.3356 79.868 10.543 79.868 9.63489V8.3959C79.868 7.46473 79.9371 6.65669 80.083 5.96409V5.9487Z" fill="#459F5E"/>
<path d="M102.764 6.39507C102.242 5.80251 101.597 5.34077 100.829 5.00986C100.061 4.67126 99.186 4.50195 98.2032 4.50195C97.2204 4.50195 96.3451 4.67126 95.585 5.00986C94.8248 5.34077 94.1875 5.80251 93.6654 6.39507C93.1433 6.98763 92.7517 7.68793 92.4753 8.49597C92.2066 9.29631 92.0684 10.1736 92.0684 11.1279V11.3818C92.0684 12.3284 92.2066 13.2057 92.4753 14.0137C92.744 14.8141 93.1433 15.5144 93.6654 16.1146C94.1952 16.7072 94.8402 17.1689 95.6003 17.4998C96.3681 17.8307 97.2434 17.9923 98.2263 17.9923C99.2091 17.9923 100.084 17.8307 100.845 17.4998C101.605 17.1689 102.242 16.7072 102.764 16.1146C103.294 15.5144 103.693 14.8141 103.962 14.0137C104.231 13.2057 104.369 12.3284 104.369 11.3818V11.1279C104.369 10.1736 104.231 9.29631 103.962 8.49597C103.693 7.68793 103.286 6.98763 102.764 6.39507ZM100.906 11.3818C100.906 11.9282 100.852 12.4361 100.752 12.9055C100.66 13.375 100.507 13.7982 100.299 14.1522C100.092 14.5062 99.8156 14.7833 99.4701 14.9834C99.1246 15.1834 98.7177 15.2835 98.2339 15.2835C97.7502 15.2835 97.3202 15.1834 96.9747 14.9834C96.6292 14.7833 96.3528 14.5062 96.1378 14.1522C95.9305 13.7905 95.7769 13.375 95.6848 12.9055C95.5926 12.4361 95.5389 11.9205 95.5389 11.3818V11.1279C95.5389 10.5969 95.585 10.1043 95.6848 9.63492C95.7769 9.16548 95.9305 8.74223 96.1378 8.38823C96.3528 8.01884 96.6292 7.7341 96.967 7.52632C97.3126 7.31854 97.7272 7.2108 98.2109 7.2108C98.6946 7.2108 99.1169 7.31854 99.4548 7.52632C99.8003 7.7341 100.077 8.02654 100.284 8.38823C100.499 8.74992 100.653 9.16548 100.752 9.63492C100.86 10.0967 100.906 10.5969 100.906 11.1279V11.3818V11.3818Z" fill="#459F5E"/>
<path d="M140.096 15.2141C139.927 15.2295 139.735 15.2372 139.52 15.2372C139.213 15.2372 138.967 15.1987 138.767 15.1295C138.568 15.0525 138.414 14.9063 138.314 14.7062C138.214 14.5061 138.168 14.2137 138.168 13.8443V7.20302H140.403V4.74813H138.168V2.64723C138.207 2.13932 138.522 1.83919 138.706 1.74684C138.944 1.63141 138.959 1.53906 138.798 1.53906H134.706V4.74813H132.832V7.20302H134.706V14.1906C134.706 15.1064 134.859 15.8452 135.159 16.407C135.466 16.9687 135.896 17.3766 136.456 17.6306C137.024 17.8768 137.685 17.9999 138.445 17.9999C138.859 17.9999 139.243 17.9692 139.581 17.9153C139.927 17.8614 140.241 17.7845 140.541 17.6844L140.526 15.1372C140.403 15.1603 140.257 15.1834 140.08 15.2064L140.096 15.2141Z" fill="#459F5E"/>
<path d="M152.189 6.26436C151.713 5.70258 151.114 5.27163 150.4 4.96381C149.686 4.65598 148.872 4.50977 147.95 4.50977C147.029 4.50977 146.161 4.67137 145.409 5.00228C144.656 5.3255 144.019 5.78723 143.489 6.38749C142.967 6.98775 142.568 7.69574 142.291 8.51917C142.015 9.3426 141.869 10.2353 141.869 11.228V11.7051C141.869 12.5671 142.015 13.3905 142.314 14.16C142.614 14.9219 143.036 15.5914 143.589 16.1686C144.15 16.7458 144.825 17.1998 145.631 17.5307C146.43 17.8539 147.336 18.0078 148.342 18.0078C149.179 18.0078 149.931 17.8924 150.584 17.6692C151.237 17.4384 151.797 17.1382 152.265 16.7765C152.734 16.4149 153.11 16.0378 153.379 15.6453L151.697 13.8137C151.306 14.314 150.837 14.6833 150.292 14.9296C149.755 15.1682 149.179 15.2913 148.549 15.2913C148.042 15.2913 147.597 15.2066 147.19 15.0296C146.799 14.8526 146.461 14.6064 146.184 14.2832C145.916 13.96 145.701 13.5829 145.547 13.1442C145.463 12.8903 145.409 12.6132 145.378 12.3285H153.663V10.8817C153.663 9.92747 153.54 9.06556 153.294 8.28061C153.049 7.49566 152.68 6.81844 152.189 6.26436V6.26436ZM150.269 10.0198H145.424C145.439 9.88899 145.455 9.75816 145.478 9.63503C145.585 9.14251 145.731 8.71926 145.931 8.35756C146.138 7.99587 146.407 7.71883 146.737 7.51874C147.067 7.31866 147.459 7.21862 147.912 7.21862C148.449 7.21862 148.887 7.33405 149.233 7.55722C149.578 7.78039 149.831 8.08822 150 8.473C150.177 8.85008 150.261 9.28104 150.261 9.75816V10.0198H150.269Z" fill="#459F5E"/>
<path d="M130.268 5.61805C129.907 5.23327 129.477 4.95623 128.971 4.77923C128.464 4.60223 127.911 4.51758 127.305 4.51758C126.537 4.51758 125.838 4.66379 125.216 4.96392C124.602 5.25636 124.072 5.67192 123.619 6.226C123.596 6.25678 123.573 6.29526 123.55 6.33374L123.427 4.76384H120.187V16.5766C120.187 17.1461 119.834 17.4693 119.634 17.5693C119.396 17.6847 119.381 17.7771 119.542 17.7771H123.642V8.55777C123.696 8.46542 123.742 8.35768 123.796 8.27303C124.018 7.94212 124.302 7.68816 124.633 7.50347C124.978 7.31878 125.377 7.22643 125.846 7.22643C126.314 7.22643 126.667 7.29569 126.974 7.43421C127.289 7.56503 127.52 7.78821 127.681 8.11142C127.842 8.43464 127.919 8.88098 127.919 9.45815V16.6458C127.888 17.1614 127.566 17.4616 127.381 17.5539C127.143 17.6694 127.128 17.7617 127.289 17.7617H131.405V9.46585C131.405 8.55007 131.305 7.78051 131.105 7.14178C130.913 6.51074 130.637 6.00283 130.268 5.61805V5.61805Z" fill="#459F5E"/>
<path d="M162.508 4.55594C162.308 4.52516 162.109 4.50977 161.917 4.50977C161.31 4.50977 160.773 4.65598 160.297 4.94072C159.828 5.23315 159.421 5.64102 159.099 6.16432C159.061 6.22588 159.038 6.30284 158.999 6.3644L158.884 4.74063H155.636V16.5534C155.636 17.1228 155.283 17.4461 155.083 17.5461C154.845 17.6615 154.83 17.7539 154.991 17.7539H159.091V9.21178C159.206 8.95013 159.345 8.71156 159.537 8.51148C159.775 8.27291 160.074 8.08822 160.427 7.97278C160.788 7.84196 161.21 7.78039 161.702 7.78039C161.894 7.78039 162.109 7.79579 162.339 7.81887C162.577 7.83426 162.784 7.85735 162.953 7.88044L163.015 4.67137C162.884 4.6252 162.723 4.58672 162.523 4.56363L162.508 4.55594Z" fill="#459F5E"/>
<path d="M118.275 4.74805H114.174V13.9443C113.998 14.306 113.752 14.6061 113.422 14.837C113.015 15.1294 112.455 15.2679 111.74 15.2679C111.464 15.2679 111.203 15.2294 110.973 15.1602C110.75 15.0909 110.55 14.9678 110.381 14.7985C110.213 14.6292 110.082 14.4137 109.982 14.1521C109.898 13.8904 109.852 13.5595 109.852 13.1747V5.94086C109.852 5.37909 110.205 5.05587 110.404 4.96352C110.643 4.84809 110.658 4.75574 110.497 4.75574H106.396V13.1593C106.396 14.0212 106.504 14.7677 106.711 15.3834C106.926 15.9913 107.226 16.4915 107.602 16.884C107.986 17.2688 108.439 17.5535 108.969 17.7382C109.506 17.9152 110.09 17.9999 110.719 17.9999C111.541 17.9999 112.263 17.8536 112.869 17.5535C113.437 17.2688 113.906 16.8763 114.29 16.3838L114.382 17.7536H117.63V5.94856C117.63 5.37909 117.983 5.05587 118.182 4.95583C118.421 4.84039 118.436 4.74805 118.275 4.74805Z" fill="#459F5E"/>
</g>
<defs>
<clipPath id="clip0_121_923">
<rect width="163" height="18" fill="white"/>
</clipPath>
</defs>
</svg>
