<svg width="96" height="96" viewBox="0 0 96 96" fill="none" xmlns="http://www.w3.org/2000/svg">
<path d="M29.6333 17.6855C30.4167 18.9815 31.3383 20.2045 32.4173 21.2624C32.9549 21.7923 33.5213 22.2896 34.1281 22.7331C34.7348 23.1747 35.3703 23.5703 36.0346 23.9101C36.5953 24.2 37.1809 24.4304 37.7741 24.6339L37.8375 24.6551C38.4711 24.8739 38.809 25.5651 38.5901 26.1987C38.4788 26.5232 38.2407 26.7709 37.9527 26.9053C36.9658 27.3623 35.9693 27.7655 35.0151 28.1763C34.1837 28.5354 33.385 28.8906 32.6439 29.2957C31.9009 29.697 31.2231 30.1616 30.5914 30.6935C30.434 30.826 30.2765 30.9603 30.1287 31.1063L29.9021 31.3194C29.8292 31.3904 29.7793 31.4576 29.7178 31.5248C29.5988 31.6611 29.474 31.784 29.3626 31.9549C29.2493 32.1181 29.1284 32.264 29.0209 32.4407L28.6983 32.9667C28.5927 33.1453 28.4967 33.3373 28.3969 33.5216L28.2471 33.8L28.1089 34.0919L27.8324 34.6736C27.1297 36.2595 26.5479 37.9338 26.0602 39.6311C25.826 40.4816 25.5975 41.336 25.4189 42.1924C25.2404 43.0448 25.0791 43.9069 25.0004 44.721C24.9236 45.5178 24.2151 46.1015 23.4183 46.0247C22.8116 45.9652 22.3277 45.5408 22.1665 44.9879L22.1626 44.9706C21.8612 43.93 21.6711 42.9411 21.4849 41.96L20.9645 39.0589C20.6804 37.4864 20.377 35.9351 19.9565 34.4874C19.7415 33.7712 19.49 33.0839 19.1962 32.4906L18.9639 32.0797C18.8717 31.9395 18.77 31.7955 18.674 31.6535C18.4666 31.3731 18.2516 31.0948 18.0097 30.8298C17.5354 30.296 17.0036 29.7911 16.4333 29.3168C15.8592 28.8484 15.2506 28.4087 14.617 27.9997C13.3498 27.1837 11.9808 26.4925 10.5792 25.9453C9.79205 25.6381 9.40229 24.7491 9.71141 23.9619C9.86885 23.5568 10.1799 23.2573 10.5524 23.1037L10.5658 23.0979C11.6736 22.6448 12.7796 22.1898 13.8106 21.6541C14.8609 21.1395 15.8266 20.5367 16.7156 19.8666L17.3664 19.3482L17.9636 18.7818C18.1729 18.6013 18.3418 18.3863 18.5242 18.1827C18.6989 17.9735 18.8986 17.7834 19.0484 17.5511L19.5303 16.8848C19.682 16.6544 19.8145 16.4087 19.9585 16.1744L20.1716 15.8173C20.2369 15.6925 20.2945 15.5639 20.3559 15.4391L20.7226 14.6807C21.3505 13.2291 21.8996 11.6701 22.3681 10.0957C22.4717 9.71555 22.5831 9.36995 22.7021 9.05891C22.7617 8.90339 22.8231 8.75555 22.8865 8.61539C22.9037 8.57315 22.9133 8.56355 22.9268 8.54435C22.9383 8.52707 22.9517 8.50979 22.9652 8.49443C22.9921 8.46179 23.0209 8.43107 23.0535 8.40035C23.1802 8.27747 23.3549 8.15075 23.5239 7.97411C23.6948 7.79939 23.8541 7.58243 23.9809 7.35395C24.3495 6.67619 24.3994 6.27107 24.6356 6.53411C24.6932 6.60131 24.7623 6.71459 24.8391 6.89123C24.9159 7.06595 24.9985 7.30979 25.058 7.62083C25.1175 7.92995 25.1463 8.30243 25.1328 8.69219C25.129 8.78819 25.1233 8.89187 25.1175 8.98211C25.1117 9.04739 25.1079 9.11459 25.1021 9.18371C25.0906 9.32195 25.0753 9.46403 25.0561 9.61187C25.01 9.98627 24.9543 10.3664 24.8928 10.7523C24.8276 11.1383 24.7277 11.5261 24.6375 11.9159C24.4705 12.6973 24.1882 13.473 23.9348 14.2218C23.8023 14.5597 23.6564 14.8938 23.5181 15.2298L23.3089 15.7328L23.0631 16.2243C22.8941 16.5507 22.7405 16.8829 22.5581 17.2016L21.9802 18.1482C21.1604 19.3847 20.1677 20.5194 19.0445 21.4832L18.1805 22.1725C17.8868 22.3914 17.5815 22.5872 17.2801 22.7965C16.9825 23.0115 16.6695 23.1863 16.3584 23.3706C16.0474 23.553 15.7402 23.7469 15.4215 23.9024L14.4749 24.3978L13.5188 24.8509L13.0407 25.0756L12.5607 25.2848L11.5988 25.7053L11.5872 23.3207C13.0522 23.8563 14.4615 24.5072 15.817 25.2829C16.6983 25.7879 17.5776 26.3504 18.4013 27.0032C19.225 27.6541 19.9911 28.3971 20.617 29.2381C20.8205 29.5299 21.0337 29.8084 21.218 30.1175C21.3121 30.273 21.4119 30.4093 21.5002 30.5821L21.7633 31.0851C21.8593 31.2541 21.9111 31.4173 21.986 31.5843C22.0532 31.7495 22.13 31.9165 22.1876 32.0797C22.2951 32.4061 22.4257 32.7363 22.514 33.0589C22.9057 34.3568 23.1706 35.6317 23.4145 36.8951C23.6545 38.1584 23.8618 39.4122 24.0749 40.6448C24.29 41.8736 24.505 43.1005 24.8007 44.2084L22.2605 44.4311C22.3757 43.4212 22.5773 42.4842 22.8039 41.5511C23.0785 40.4375 23.3953 39.3469 23.7466 38.2621C24.0961 37.1773 24.4781 36.1021 24.9197 35.0403C25.3613 33.9786 25.8337 32.9245 26.4404 31.8973C26.7457 31.3847 27.0721 30.8759 27.4657 30.3805C27.5137 30.3191 27.5578 30.2557 27.6116 30.1943L27.7786 30.0119L28.1165 29.6509C28.2298 29.5299 28.3393 29.4435 28.4525 29.3399C28.5658 29.24 28.6733 29.1363 28.7905 29.0423C29.4029 28.5181 30.073 28.0515 30.7661 27.6426C31.4593 27.2336 32.1735 26.8899 32.8801 26.5827C34.297 25.9722 35.6641 25.473 36.9658 24.8605L37.1175 26.794C35.8503 26.3869 34.6484 25.809 33.5386 25.1063C32.4346 24.3939 31.4247 23.5587 30.5089 22.641C29.5988 21.7175 28.7866 20.7075 28.0666 19.64C27.3485 18.5744 26.7418 17.4205 26.2311 16.257C25.5802 14.7613 25.129 13.2522 24.8372 11.7872C24.5415 10.3223 24.4071 8.89763 24.4052 7.54595C24.4071 7.03715 24.5165 6.72995 24.6759 6.64547L24.5012 7.08707C24.4589 7.12547 24.3956 7.16003 24.3322 7.17539C24.2689 7.19075 24.2093 7.19075 24.1671 7.18691C24.0807 7.17731 24.0481 7.16579 24.0404 7.17731C24.0365 7.18691 24.0596 7.22339 24.1556 7.25987C24.2036 7.27715 24.2727 7.29251 24.3533 7.28483C24.434 7.27907 24.5223 7.25027 24.5876 7.20995L24.8218 6.61667C25.0292 6.63971 25.273 6.96419 25.4804 7.59203C26.1005 9.47363 26.7418 11.4205 27.4906 13.2733C28.1012 14.7939 28.7386 16.3319 29.5853 17.6874C29.5988 17.6835 29.6122 17.6797 29.6295 17.6759L29.6333 17.6855Z" fill="#94D39E"/>
<path d="M63.1373 37.2232C63.3965 37.9759 63.6729 38.7227 63.9609 39.4581C64.0339 39.6386 64.1069 39.8306 64.1798 39.9995C64.2528 40.1589 64.3161 40.324 64.3968 40.4815C64.5523 40.7963 64.7232 41.1055 64.9133 41.4011C65.6755 42.5896 66.7353 43.6072 67.9891 44.4021C69.0566 45.0952 70.2643 45.6328 71.52 46.0399C72.1536 46.2453 72.4992 46.925 72.2957 47.5567C72.1958 47.8658 71.9827 48.1058 71.7197 48.2479L71.687 48.2651C71.4221 48.4072 71.1533 48.5359 70.8979 48.6971C69.4253 49.5823 68.1024 50.7784 66.9523 52.1205C65.8003 53.4645 64.8211 54.9679 64.0339 56.5538C63.2486 58.1397 62.6515 59.8159 62.3366 61.5151C62.0237 63.2104 61.9929 64.9365 62.3808 66.5032L59.5257 67.0869C59.2243 65.4203 58.9305 63.7653 58.5734 62.1467C58.2528 60.6895 57.888 59.2552 57.431 57.869C56.9721 56.4847 56.423 55.1464 55.7549 53.8869C55.5859 53.5759 55.4073 53.2648 55.2307 52.9615C55.0502 52.6658 54.864 52.3759 54.6643 52.0994C54.2669 51.5426 53.8329 51.0261 53.3645 50.573C52.4256 49.6629 51.3408 49.0543 50.2291 48.9064C49.392 48.7951 48.8025 48.0251 48.9139 47.188C48.9792 46.7023 49.2633 46.301 49.6531 46.0706L49.6646 46.0648C50.6803 45.4735 51.6192 44.7688 52.4313 43.9279C52.6425 43.7263 52.8269 43.4978 53.0246 43.2827C53.207 43.0523 53.399 42.8315 53.5699 42.5915C53.9251 42.1231 54.2419 41.62 54.5357 41.1016C55.7145 39.0242 56.4211 36.628 56.8627 34.1666C57.1488 32.5557 57.4253 30.9007 57.6269 29.2552C57.7209 28.468 57.8611 27.8171 58.0358 27.2834C58.1222 27.0165 58.2201 26.7784 58.3257 26.5672C58.3776 26.3983 58.4467 26.2101 58.5293 26.0699C58.6118 25.924 58.704 25.8165 58.7789 25.7493C59.2089 25.421 58.8787 25.9989 59.3913 26.4674C59.5161 26.573 59.6985 26.6095 59.8176 26.5922C59.8771 26.5903 59.9213 26.5691 59.9501 26.5845C59.9769 26.6747 60.0038 26.7688 60.0269 26.8706C60.1267 27.2757 60.192 27.7768 60.2131 28.3643C60.2649 29.8523 60.1459 31.4863 59.9001 33.0203C59.664 34.4968 59.3606 35.9675 58.944 37.4229C58.7347 38.1487 58.5024 38.8725 58.2278 39.5829C57.9571 40.2952 57.6537 40.9999 57.3043 41.6853C56.615 43.06 55.7453 44.3695 54.6969 45.5349C54.1689 46.1147 53.6025 46.66 52.9958 47.1631C52.3853 47.6584 51.7421 48.1115 51.072 48.5224L50.5901 46.0975C51.9821 46.253 53.2934 46.8194 54.3725 47.5835C55.2806 48.2229 56.087 48.9928 56.759 49.828C57.1008 50.2447 57.4061 50.6786 57.6825 51.1221L57.8841 51.4562C57.9456 51.5675 58.0051 51.6789 58.0665 51.7903C58.1837 52.013 58.3046 52.2338 58.4083 52.4584C59.4931 54.7528 60.2477 57.1336 60.8409 59.5087C61.4323 61.8875 61.8585 64.2703 62.2502 66.6203L62.2541 66.6434C62.3712 67.3519 61.8931 68.0239 61.1827 68.141C60.4992 68.2543 59.8502 67.8107 59.6985 67.1426C59.4067 65.8447 59.328 64.5275 59.4336 63.2507C59.6371 60.8584 60.3129 58.5813 61.2749 56.4597C62.2464 54.3419 63.5097 52.3682 65.0515 50.6229C66.6221 48.8488 68.4883 47.2859 70.6963 46.2203L70.8441 48.2018C70.1453 47.9599 69.4483 47.7103 68.7705 47.3935C68.0909 47.0901 67.4285 46.733 66.7891 46.3317C66.1478 45.9362 65.5411 45.4735 64.9709 44.9685C64.4006 44.4635 63.8726 43.901 63.4118 43.2866C62.9491 42.6741 62.5459 42.0155 62.2176 41.3224C62.1408 41.1496 62.0525 40.9711 61.9833 40.804L61.7779 40.3067C61.6416 39.9746 61.5129 39.6424 61.3843 39.3083C60.8755 37.9739 60.4089 36.6299 59.9865 35.2667C59.5161 33.7461 59.1533 32.2312 58.9593 30.7471C58.7712 29.2687 58.7328 27.7999 59.0265 26.4751C59.1187 26.1352 59.2339 25.9087 59.3549 25.8011L59.328 25.6495C59.3165 25.5803 59.28 25.4978 59.2262 25.4325C59.1725 25.3653 59.111 25.3192 59.063 25.2866C58.967 25.2213 58.9171 25.1867 58.9075 25.1483C58.9017 25.1138 58.9267 25.0658 59.0803 25.0543C59.1552 25.0504 59.2742 25.0658 59.4067 25.1368C59.5392 25.204 59.6621 25.3288 59.7369 25.4459L59.8099 25.8491C59.8733 25.9279 59.927 26.0431 59.9712 26.189C60.0173 26.3368 60.0345 26.5096 60.0749 26.7362C60.1113 26.9627 60.1286 27.1835 60.1785 27.4159C60.2227 27.6463 60.2669 27.8786 60.3129 28.1109C60.4243 28.5813 60.5261 29.0517 60.6585 29.5298C60.9101 30.4821 61.1981 31.4479 61.511 32.4079C62.0179 33.9861 62.5094 35.6315 63.1046 37.2175C63.12 37.2175 63.1334 37.2175 63.1507 37.2175L63.1373 37.2232Z" fill="#94D39E"/>
<path d="M38.2925 65.3707C38.7687 66.7358 39.5751 67.8859 40.7328 68.7077C40.8403 68.7979 40.9671 68.8651 41.088 68.9381L41.4547 69.1589C41.712 69.2894 41.9808 69.4008 42.2458 69.5198L42.3399 69.5621C42.9427 69.8328 43.2115 70.5393 42.9408 71.1422C42.8064 71.4437 42.5568 71.6625 42.2707 71.772C42.0595 71.8526 41.8503 71.9333 41.6467 72.0177C41.2243 72.1925 40.8231 72.3672 40.4679 72.5553C40.1127 72.7454 39.8016 72.9451 39.5232 73.1832C38.9703 73.6555 38.4826 74.3121 38.0717 75.0283C37.6647 75.7483 37.3306 76.524 37.1309 77.2824C36.9274 78.0331 36.8871 78.7915 37.0407 79.2542L34.2259 79.9589C34.009 79.0104 33.7786 78.0888 33.4963 77.2133C33.0624 75.8693 32.4941 74.6347 31.6935 73.644C30.8947 72.6475 29.8714 71.8891 28.7808 71.5953C27.9667 71.3765 27.4867 70.5393 27.7056 69.7253C27.8131 69.3278 28.0685 69.0091 28.3968 68.8133L28.4659 68.7729L28.8384 68.5521L29.0247 68.4427L29.2013 68.316L29.5584 68.0645L29.8963 67.7803L30.0653 67.6382L30.2247 67.4827L30.5453 67.1697L30.8448 66.8318L30.9946 66.6629C31.0426 66.6053 31.0887 66.5419 31.1347 66.4824C31.8931 65.5262 32.521 64.4241 33.0144 63.2414C33.3312 62.4984 33.7037 61.7515 34.0243 60.9873C34.1875 60.6264 34.3661 60.3345 34.5927 60.1118C34.8096 59.8853 35.0573 59.7221 35.3242 59.6088C35.712 59.4437 36.0634 59.5051 36.3053 59.7739C36.5453 60.0408 36.6874 60.5189 36.6144 61.1429C36.5261 61.932 36.2765 62.7691 35.9443 63.5237C35.7907 63.9 35.6064 64.2686 35.4375 64.6392L35.1591 65.1864L35.0189 65.459L34.8672 65.7278C34.4794 66.4497 34.0224 67.1448 33.5328 67.8168C33.0413 68.4907 32.473 69.1205 31.8624 69.7157C31.2384 70.3013 30.5434 70.8235 29.7946 71.2843L29.5219 68.8517C30.1152 68.9861 30.6912 69.1934 31.2327 69.4565C32.3021 69.9672 33.3082 70.7198 33.936 71.6414C34.3623 72.252 34.7271 72.8971 35.0458 73.5403C35.3645 74.1835 35.6295 74.8382 35.8656 75.491C36.3303 76.8005 36.6567 78.1099 36.9082 79.3925L36.9139 79.4251C37.0522 80.1278 36.5952 80.8113 35.8925 80.9496C35.2224 81.0821 34.5696 80.6693 34.3891 80.0222C34.2029 79.3483 34.1971 78.7051 34.2663 78.1137C34.3488 77.4206 34.5216 76.7832 34.7328 76.1784C34.9459 75.5736 35.2032 74.9995 35.497 74.4446C35.7907 73.8917 36.121 73.3598 36.505 72.8491C36.8909 72.3403 37.3248 71.8488 37.8567 71.4187C38.4173 70.956 39.0624 70.595 39.673 70.332C40.2893 70.0613 40.8711 69.8635 41.4394 69.6581L41.4624 71.6529C40.0032 71.0885 38.6304 70.1553 37.609 68.9285C37.4861 68.7729 37.3709 68.6117 37.2519 68.4523L37.0771 68.2123C37.0234 68.1297 36.9754 68.0453 36.9235 67.9608L36.6221 67.4558L36.3667 66.9317L36.24 66.6705L36.1344 66.4037L35.9251 65.868L35.7543 65.3246C35.6967 65.1441 35.641 64.9637 35.6007 64.7793C35.5488 64.572 35.5008 64.3646 35.4586 64.1592C35.4259 63.9537 35.3952 63.7483 35.3703 63.5448C35.3415 63.3413 35.328 63.1397 35.3223 62.94C35.3146 62.7403 35.3088 62.5425 35.3127 62.3467C35.3395 61.5633 35.4586 60.8184 35.7024 60.1233C35.9232 59.484 36.5626 59.5013 36.7527 60.1905C37.0272 61.1678 37.2711 62.1662 37.5437 63.1109C37.7607 63.8885 37.9392 64.6737 38.2407 65.3822C38.2541 65.3784 38.2675 65.3765 38.2829 65.3726L38.2925 65.3707Z" fill="#94D39E"/>
<path d="M82.9728 17.8384C83.1456 18.4374 83.3818 19.0115 83.6564 19.5625C83.7293 19.6969 83.7908 19.8409 83.8733 19.9696L84.1095 20.3651C84.2823 20.6147 84.4512 20.8739 84.6471 21.1043C84.9293 21.4652 85.2576 21.784 85.6032 22.0777L85.6186 22.0912C86.137 22.5308 86.2023 23.3065 85.7626 23.8268C85.6935 23.9094 85.609 23.9843 85.5245 24.0438C85.3728 24.1494 85.2212 24.2569 85.0733 24.3664C84.1133 25.1651 83.3204 26.2211 82.7693 27.3904C82.4909 27.9721 82.2663 28.5808 82.1165 29.1856C82.0839 29.3353 82.0397 29.487 82.0205 29.6348C81.9956 29.7827 81.9668 29.9324 81.9572 30.0726L81.936 30.2838V30.4796L81.9303 30.5776C81.9303 30.6083 81.936 30.6352 81.938 30.662C81.9437 30.7177 81.9476 30.7734 81.9495 30.8291L81.9533 30.8963C81.9879 31.6892 81.3735 32.3632 80.5805 32.3977C79.9412 32.4265 79.3786 32.0291 79.1674 31.4608C78.9639 30.9097 78.7911 30.3606 78.6452 29.846C78.4973 29.3334 78.3648 28.8323 78.217 28.3868C78.1824 28.2736 78.146 28.1641 78.1076 28.0624C78.0692 27.9587 78.0346 27.8512 77.9943 27.7513C77.9098 27.5593 77.833 27.3577 77.737 27.1907C77.6525 27.0064 77.5431 26.8585 77.4471 26.6953C77.3933 26.6204 77.3338 26.5532 77.28 26.4803L77.1975 26.3728L77.1015 26.2787C76.6138 25.766 75.9476 25.3782 75.1258 25.1152C74.3252 24.8598 73.8836 24.0035 74.1389 23.2028C74.256 22.8342 74.5018 22.5424 74.809 22.358L74.8839 22.3139L75.2602 22.0892C75.3236 22.0508 75.3869 22.0163 75.4484 21.9779L75.6231 21.8492C75.7383 21.7628 75.8612 21.6841 75.9744 21.5939L76.3008 21.3116C76.7175 20.9142 77.1149 20.4899 77.4279 19.9868C77.7485 19.4934 78.0327 18.9616 78.2477 18.3856C78.3706 18.1072 78.4493 17.8019 78.5511 17.5081L78.6701 17.0512L78.7296 16.8227L78.7757 16.5884C78.9216 15.9452 79.1002 15.279 79.2692 14.6108C79.3037 14.4496 79.3556 14.3036 79.4189 14.1692C79.4861 14.0233 79.5533 13.9696 79.6551 13.6777C79.7588 13.4492 79.8932 13.2707 80.0256 13.1651C80.1581 13.0576 80.281 13.0153 80.3808 13.0153C80.6708 13.0249 80.7399 13.4224 81.026 13.7449C81.1604 13.9062 81.3677 14.0329 81.552 14.0387C81.6423 14.0444 81.7152 14.0252 81.7594 14.008L81.7671 14.0041C81.7671 14.0041 81.7728 14.0041 81.7728 14.0137L81.7844 14.0579C81.7901 14.0867 81.7978 14.1174 81.8036 14.1481C81.8151 14.2096 81.8247 14.2729 81.8324 14.3401C81.8496 14.5072 81.8612 14.68 81.8669 14.8528C81.8669 15.0275 81.8573 15.2041 81.8439 15.3808C81.8247 15.734 81.7556 16.0892 81.6845 16.4329C81.5021 17.2201 81.3024 18.0054 81.0164 18.7772C80.736 19.5472 80.4135 20.3113 79.9853 21.0352C79.1616 22.4924 77.9655 23.8076 76.5178 24.758C76.4352 24.8137 76.3546 24.8713 76.2701 24.927L76.0436 22.3062C76.4621 22.4329 76.8922 22.5289 77.3088 22.7344C77.5181 22.8284 77.7236 22.9225 77.9175 23.0588C78.0154 23.1222 78.1095 23.1875 78.2036 23.2566C78.2976 23.3219 78.3879 23.3929 78.4704 23.4774C79.0388 23.9843 79.5188 24.5987 79.9008 25.2265C80.2868 25.8601 80.5498 26.5187 80.7572 27.1427C80.9664 27.7667 81.1277 28.3753 81.2756 28.9417C81.4253 29.5081 81.5712 30.0438 81.7268 30.5468L79.2423 31.1094C79.2365 30.8598 79.2212 30.5929 79.25 30.3683C79.2941 29.7692 79.4151 29.2355 79.5591 28.7113L79.6704 28.3235L79.801 27.9452C79.8836 27.6899 79.9892 27.4499 80.0871 27.2041C80.496 26.2307 81.0298 25.3187 81.6864 24.4912C82.4122 23.5868 83.28 22.7728 84.2938 22.1488L84.2247 23.8844C83.2071 23.0416 82.3623 22.024 81.7421 20.9104L81.5098 20.4918L81.3024 20.0636L81.1988 19.8505L81.1085 19.6316L80.928 19.1939C80.7111 18.6044 80.5152 18.0092 80.3751 17.4025C80.0333 16.0086 80.1082 14.6089 80.6554 13.4646C80.7284 13.311 80.8359 13.2054 80.953 13.1555C80.9741 13.1459 80.9837 13.1228 80.9741 13.1017C80.9741 13.0979 80.9703 13.094 80.9664 13.0902L80.7898 12.8963C80.7168 12.8156 80.5844 12.7734 80.5037 12.758C80.4192 12.7408 80.3693 12.7273 80.3501 12.6947C80.3328 12.664 80.3424 12.6102 80.4384 12.5468C80.4864 12.5161 80.5613 12.4835 80.6612 12.472C80.7591 12.4585 80.8781 12.472 80.9837 12.5046L81.3908 13.1555C81.529 13.2208 81.6461 13.3552 81.7018 13.5548C81.9264 14.3516 82.1396 15.1561 82.3738 15.9337C82.5639 16.5712 82.7021 17.2336 82.9287 17.8576C82.9421 17.8537 82.9556 17.8518 82.9709 17.848L82.9728 17.8384Z" fill="#94D39E"/>
<path d="M78.9945 75.9989C79.031 76.1564 79.0675 76.3196 79.1078 76.4693C79.127 76.5481 79.1481 76.6191 79.1673 76.6844C79.1865 76.7516 79.2057 76.8207 79.2307 76.886C79.3209 77.1529 79.4342 77.4178 79.5705 77.6617C79.8432 78.1532 80.2003 78.5871 80.615 78.9001C80.8454 79.0709 81.0931 79.2073 81.3562 79.2937L81.4406 79.3225C82.0685 79.5298 82.4102 80.2076 82.2009 80.8354C82.103 81.1311 81.8976 81.3653 81.6461 81.5055C81.3773 81.6553 81.1238 81.8261 80.8953 82.0258C80.4211 82.4425 80.0256 82.9493 79.6531 83.5388C79.4669 83.8325 79.2845 84.1474 79.1001 84.4757L78.8179 84.9788C78.7315 85.1362 78.6585 85.2706 78.5875 85.4223C78.3053 86.0117 78.0998 86.6261 78.0134 87.229C77.9232 87.8319 77.9462 88.4137 78.0845 88.9417L75.2678 89.5522C75.047 88.5577 74.8109 87.5957 74.5037 86.6953C74.1369 85.6143 73.6704 84.6255 73.0406 83.7999C72.4128 82.9705 71.6371 82.3061 70.7827 81.9394C70.0089 81.6053 69.6499 80.7068 69.984 79.933C70.1318 79.5893 70.391 79.3282 70.7021 79.1727L70.775 79.1362L71.1225 78.9615L71.2973 78.877L71.4624 78.7753L71.7926 78.5717L72.1037 78.3375L72.2611 78.2223L72.407 78.0898L72.6989 77.8287L72.9677 77.5388C73.0118 77.4908 73.0598 77.4447 73.1021 77.3948L73.2249 77.2373C73.3075 77.1317 73.392 77.03 73.4726 76.9225L73.6992 76.5865C73.7779 76.477 73.8451 76.358 73.9123 76.2389C73.9795 76.1199 74.0505 76.0028 74.1139 75.8818C74.2291 75.6303 74.3635 75.3903 74.4595 75.1253C74.5113 74.9948 74.5651 74.8681 74.615 74.7356L74.7475 74.3343C74.9433 73.6949 75.2045 73.0517 75.3907 72.3836C75.4867 72.0687 75.6153 71.7961 75.7997 71.5945C75.8726 71.6329 76.0185 71.7212 76.2067 71.7058C76.3949 71.6943 76.5677 71.5618 76.6541 71.3948C76.8998 70.8898 76.6925 70.4751 76.9747 70.4252C77.0457 70.4175 77.159 70.4405 77.3107 70.55C77.4605 70.6556 77.639 70.8687 77.7427 71.1356C77.7965 71.2681 77.8329 71.4063 77.8579 71.5407C77.8675 71.6021 77.8771 71.6636 77.8867 71.7269C77.8944 71.7557 77.9021 71.7845 77.9097 71.8153C77.9385 71.9362 77.9577 72.0668 77.9673 72.2089C78 72.5679 77.9616 72.9423 77.9193 73.3167C77.8905 73.5029 77.8502 73.6892 77.8099 73.8735C77.7888 73.9657 77.7677 74.0578 77.7446 74.1481C77.7158 74.2383 77.6889 74.3285 77.6621 74.4169C77.2032 75.9049 76.5331 77.3372 75.5942 78.6255C75.1238 79.2687 74.5709 79.8581 73.9641 80.3977C73.3478 80.9314 72.6585 81.3788 71.9289 81.7685L71.9213 79.2975C72.2361 79.4204 72.551 79.5509 72.8486 79.7084C73.7741 80.1807 74.6573 80.8469 75.1949 81.6649C76.7616 84.038 77.5162 86.5954 77.9424 89.0185L77.9558 89.0914C78.0787 89.7903 77.6121 90.4585 76.9113 90.5813C76.2201 90.7023 75.5616 90.2473 75.4253 89.5637C75.3657 89.2661 75.3235 88.9647 75.3101 88.6671C75.2486 87.4441 75.4963 86.2748 75.9149 85.2226C76.1242 84.6965 76.3814 84.1877 76.6713 83.7173C76.9267 83.3026 77.1897 82.8687 77.4873 82.4329C77.8579 81.8895 78.2822 81.3365 78.7891 80.8373C79.2902 80.3343 79.8777 79.9042 80.4902 79.5586L80.7417 81.4729C80.0429 81.254 79.4093 80.8892 78.8851 80.4341C78.3571 79.981 77.9309 79.4473 77.591 78.8809C77.4182 78.5967 77.2742 78.301 77.1417 77.9996C77.0169 77.7001 76.9037 77.3775 76.823 77.0857C76.6521 76.4924 76.5273 75.9125 76.4179 75.3289C76.2854 74.6127 76.2278 73.9081 76.272 73.2226C76.3161 72.5391 76.4563 71.8709 76.7424 71.2796C76.8077 71.1509 76.8941 71.0569 76.9901 71.0031L76.9862 71.0338C77.0054 71.0569 77.0054 71.1125 76.9766 71.1625C76.9478 71.2143 76.8979 71.2527 76.8614 71.2777C76.7846 71.3276 76.7443 71.3564 76.7385 71.4044C76.7385 71.4466 76.7577 71.5215 76.919 71.5522C76.9977 71.5657 77.1302 71.5522 77.2627 71.4658C77.3952 71.3833 77.4893 71.2393 77.5257 71.1337L77.5373 71.0261C77.6525 71.0991 77.7389 71.2181 77.7849 71.3929C78.0038 72.2012 78.2342 73.0479 78.4627 73.8908C78.6509 74.5877 78.7565 75.325 78.9485 76.0047C78.9619 76.0028 78.9753 76.0009 78.9907 75.9989H78.9945Z" fill="#94D39E"/>
</svg>
