<svg width="144" height="147" viewBox="0 0 144 147" fill="none" xmlns="http://www.w3.org/2000/svg">
<path d="M120.619 136.936C124.946 137.077 124.433 134.427 124.479 131.996C123.258 127.524 123.666 123.172 123.47 121.033C123.312 119.321 125.647 111.484 126.834 107.779C131.736 99.5074 125.867 91.4183 125.16 89.5957C124.595 88.1376 115.906 82.807 111.633 80.3239C113.772 80.127 124.634 82.9025 129.798 84.3148C133.085 84.8752 133.757 81.4335 133.682 79.6426C130.637 52.417 111.582 52.0253 110.336 51.589C108.664 51.0035 103.802 49.9432 101.533 49.7026L120.374 49.3167C125.1 49.0974 128.003 52.1201 128.864 53.6589C132.678 55.2495 134.762 52.307 135.327 50.637C135.471 43.4123 122.429 33.5565 118.805 32.2721C114.803 30.8537 94.7999 29.2884 90.7889 29.6576C87.5801 29.953 88.1056 28.8259 88.7694 28.2255C91.2918 22.8158 105.229 21.4969 111.882 21.5137C119.797 20.7852 118.757 17.1056 117.248 15.3568C105.705 -1.64829 62.4144 5.57246 55.2225 9.47043C49.469 12.5888 46.4001 19.0916 45.5849 21.9532C40.8366 19.5857 30.1402 23.1051 25.3855 25.1608C11.3088 29.261 7.35027 43.0907 7.13058 49.493C3.77322 59.0758 5.51416 73.1358 6.57667 81.7168L6.63257 82.1684C7.06117 85.6346 14.998 105.668 18.576 109.384C21.4384 112.357 23.5264 108.479 24.2126 106.169C25.2375 100.897 29.3433 92.5725 31.2681 89.0695C35.6763 83.0547 39.3561 82.2126 40.645 82.5434C28.9939 98.9328 32.9485 110.468 35.9178 116.147C44.4272 132.423 55.9929 132.098 58.1321 131.901C59.8435 131.743 58.834 124.016 58.7553 124.023C58.6767 124.03 58.6135 122.757 58.6323 122.686C59.2713 120.254 61.5823 115.673 62.6578 113.686C65.0253 108.938 67.4655 108.3 68.3896 108.574C65.0707 114.704 68.3687 125.925 70.4325 130.768C72.0682 136.82 76.2023 137.788 77.7116 139.537C78.919 140.936 87.3063 139.283 91.349 138.281C95.529 136.818 94.123 133.262 92.8975 131.667C89.7818 128.286 88.7239 124.411 88.5844 122.895C89.2569 115.552 91.7653 119.367 93.3943 119.486C94.6975 119.582 97.1714 127.318 98.2455 131.175C100.761 137.415 116.972 137.361 120.619 136.936Z" fill="#DCEFE0"/>
<path d="M87.337 94.6954C88.0969 95.9198 92.748 99.7704 94.9786 101.543C99.257 101.149 84.408 84.3581 76.4486 76.012L77.7856 75.8889C80.7832 77.9861 97.2178 75.089 105.06 73.3784C109.922 72.2837 106.856 70.4265 104.716 69.6348C100.218 65.3027 82.3412 69.7167 73.9649 72.4653C71.97 71.3006 65.9015 58.1062 64.6842 56.6003C63.7104 55.3955 62.4585 51.9511 61.9543 50.3796C65.2813 51.3677 75.5119 50.2103 80.2114 49.5081C87.6986 48.8189 91.6581 45.9375 92.702 44.583C88.6188 38.0036 65.1971 46.2075 61.7626 47.4104L61.6836 47.4381C58.5486 48.5357 57.4757 45.6681 58.9816 44.4509C60.4876 43.2336 73.8621 24.4742 76.4131 22.8911C78.4538 21.6246 78.9148 20.7731 78.8902 20.5057C78.0712 18.6395 73.0226 20.2368 70.6007 21.2688C67.7086 22.0743 67.5396 23.1685 62.1737 29.3254C57.8809 34.2509 56.9905 39.4206 57.0818 41.3897C56.9834 40.3201 49.842 24.2582 47.7486 22.0239C46.074 20.2364 45.803 21.394 45.8768 22.1962C47.7866 34.1553 51.7831 42.4168 52.2228 44.264C52.5745 45.7417 52.1112 45.9821 51.8356 45.9176C46.1359 44.9321 40.029 46.5549 37.688 47.4895C34.7958 48.2951 29.3102 56.081 29.4333 57.418C29.5563 58.755 28.0291 62.6709 29.9009 62.4986C31.3984 62.3607 35.2045 58.5946 36.9205 56.7288C38.3195 55.5214 41.9414 53.6599 43.5775 52.8801C46.1643 52.8577 51.378 49.7351 53.6616 48.1765C56.6698 59.7649 64.9366 72.0379 68.694 76.7258C56.6464 86.464 55.4884 94.3909 54.1794 97.7474C53.1321 100.433 54.9439 100.194 55.9807 99.7389L62.4408 93.751C66.0551 90.8295 69.3164 82.5112 70.4953 78.7173L81.2047 89.5968C78.7802 95.483 79.7155 105.644 84.1629 104.156C88.6102 102.668 86.3871 93.1648 87.337 94.6954Z" fill="#F1FAF3"/>
</svg>
