<svg width="28" height="28" viewBox="0 0 28 28" fill="none" xmlns="http://www.w3.org/2000/svg">
<g clip-path="url(#clip0_356_2456)">
<g clip-path="url(#clip1_356_2456)">
<path d="M23.6249 14.6645C23.6249 14.4458 23.6249 14.227 23.6249 13.9995C23.6249 13.772 23.6249 13.5533 23.6249 13.3258L25.3049 11.8558C25.6146 11.5828 25.8178 11.2091 25.8787 10.8009C25.9395 10.3926 25.8541 9.97589 25.6374 9.6245L23.5724 6.1245C23.419 5.85873 23.1984 5.63798 22.9327 5.48441C22.667 5.33083 22.3656 5.24982 22.0587 5.2495C21.8685 5.24804 21.6794 5.2776 21.4987 5.337L19.3724 6.0545C19.0053 5.81056 18.6224 5.59132 18.2262 5.39825L17.7799 3.19325C17.6999 2.79041 17.4808 2.42854 17.1608 2.17099C16.8409 1.91344 16.4406 1.77663 16.0299 1.7845H11.9349C11.5243 1.77663 11.124 1.91344 10.804 2.17099C10.4841 2.42854 10.265 2.79041 10.1849 3.19325L9.73869 5.39825C9.33963 5.59128 8.95379 5.81051 8.58369 6.0545L6.50119 5.302C6.31857 5.25442 6.12946 5.23669 5.94119 5.2495C5.6343 5.24982 5.3329 5.33083 5.06721 5.48441C4.80151 5.63798 4.58088 5.85873 4.42744 6.1245L2.36244 9.6245C2.1582 9.97537 2.08231 10.3863 2.14776 10.787C2.2132 11.1877 2.41592 11.5531 2.72119 11.8208L4.37494 13.3345C4.37494 13.5533 4.37494 13.772 4.37494 13.9995C4.37494 14.227 4.37494 14.4458 4.37494 14.6733L2.72119 16.1433C2.4073 16.4128 2.19904 16.7847 2.13336 17.1932C2.06769 17.6017 2.14885 18.0202 2.36244 18.3745L4.42744 21.8745C4.58088 22.1403 4.80151 22.361 5.06721 22.5146C5.3329 22.6682 5.6343 22.7492 5.94119 22.7495C6.13137 22.751 6.32052 22.7214 6.50119 22.662L8.62744 21.9445C8.99454 22.1884 9.37747 22.4077 9.77369 22.6008L10.2199 24.8058C10.3 25.2086 10.5191 25.5705 10.839 25.828C11.159 26.0856 11.5593 26.2224 11.9699 26.2145H16.0999C16.5106 26.2224 16.9109 26.0856 17.2308 25.828C17.5508 25.5705 17.7699 25.2086 17.8499 24.8058L18.2962 22.6008C18.6952 22.4077 19.0811 22.1885 19.4512 21.9445L21.5687 22.662C21.7494 22.7214 21.9385 22.751 22.1287 22.7495C22.4356 22.7492 22.737 22.6682 23.0027 22.5146C23.2684 22.361 23.489 22.1403 23.6424 21.8745L25.6374 18.3745C25.8417 18.0236 25.9176 17.6127 25.8521 17.212C25.7867 16.8113 25.584 16.4459 25.2787 16.1783L23.6249 14.6645ZM22.0587 20.9995L19.0574 19.9845C18.3549 20.5796 17.5519 21.0448 16.6862 21.3583L16.0649 24.4995H11.9349L11.3137 21.3933C10.4548 21.0709 9.65619 20.6065 8.95119 20.0195L5.94119 20.9995L3.87619 17.4995L6.25619 15.3995C6.0944 14.4938 6.0944 13.5665 6.25619 12.6608L3.87619 10.4995L5.94119 6.9995L8.94244 8.0145C9.64501 7.41941 10.448 6.95422 11.3137 6.64075L11.9349 3.4995H16.0649L16.6862 6.60575C17.5451 6.92812 18.3437 7.3925 19.0487 7.9795L22.0587 6.9995L24.1237 10.4995L21.7437 12.5995C21.9055 13.5052 21.9055 14.4325 21.7437 15.3383L24.1237 17.4995L22.0587 20.9995Z" fill="#707070"/>
<path d="M14 19.25C12.9616 19.25 11.9466 18.9421 11.0833 18.3652C10.2199 17.7883 9.54699 16.9684 9.14963 16.0091C8.75227 15.0498 8.64831 13.9942 8.85088 12.9758C9.05345 11.9574 9.55347 11.0219 10.2877 10.2877C11.0219 9.55347 11.9574 9.05345 12.9758 8.85088C13.9942 8.64831 15.0498 8.75227 16.0091 9.14963C16.9684 9.54699 17.7883 10.2199 18.3652 11.0833C18.9421 11.9466 19.25 12.9616 19.25 14C19.257 14.6914 19.126 15.3772 18.8647 16.0174C18.6033 16.6575 18.2169 17.239 17.728 17.728C17.239 18.2169 16.6575 18.6033 16.0174 18.8647C15.3772 19.126 14.6914 19.257 14 19.25V19.25ZM14 10.5C13.5374 10.4892 13.0775 10.5724 12.648 10.7445C12.2185 10.9165 11.8283 11.174 11.5011 11.5011C11.174 11.8283 10.9165 12.2185 10.7445 12.648C10.5724 13.0775 10.4892 13.5374 10.5 14C10.4892 14.4626 10.5724 14.9225 10.7445 15.352C10.9165 15.7815 11.174 16.1717 11.5011 16.4989C11.8283 16.826 12.2185 17.0835 12.648 17.2555C13.0775 17.4276 13.5374 17.5108 14 17.5C14.4626 17.5108 14.9225 17.4276 15.352 17.2555C15.7815 17.0835 16.1717 16.826 16.4989 16.4989C16.826 16.1717 17.0835 15.7815 17.2555 15.352C17.4276 14.9225 17.5108 14.4626 17.5 14C17.5108 13.5374 17.4276 13.0775 17.2555 12.648C17.0835 12.2185 16.826 11.8283 16.4989 11.5011C16.1717 11.174 15.7815 10.9165 15.352 10.7445C14.9225 10.5724 14.4626 10.4892 14 10.5Z" fill="#707070"/>
</g>
</g>
<defs>
<clipPath id="clip0_356_2456">
<rect width="28" height="28" fill="white"/>
</clipPath>
<clipPath id="clip1_356_2456">
<rect width="28" height="28" fill="white"/>
</clipPath>
</defs>
</svg>
