<svg width="770" height="552" viewBox="0 0 770 552" fill="none" xmlns="http://www.w3.org/2000/svg">
<g clip-path="url(#clip0_351_1752)">
<g clip-path="url(#clip1_351_1752)">
<path d="M465.273 530.538C376.501 559.275 296.235 538.666 221.036 494.285C158.97 457.655 131.449 421.316 124.63 363.891C117.392 302.931 148.92 257.774 216.37 218.414C262.077 191.743 356.752 178.715 356.752 178.715C356.752 178.715 469.906 175.218 530.888 198.081C591.055 220.639 634.655 240.772 651.36 287.952C670.097 340.867 586.529 419.794 586.529 419.794C586.529 419.794 535.17 507.911 465.273 530.538Z" fill="#DCEFE0"/>
</g>
</g>
<defs>
<clipPath id="clip0_351_1752">
<rect width="770" height="552" fill="white"/>
</clipPath>
<clipPath id="clip1_351_1752">
<rect width="552" height="770" fill="white" transform="matrix(0 1 -1 0 770 0)"/>
</clipPath>
</defs>
</svg>
