<svg width="167" height="168" viewBox="0 0 167 168" fill="none" xmlns="http://www.w3.org/2000/svg">
<g clip-path="url(#clip0_16_1767)">
<path d="M140.572 104.87C140.572 136.89 114.617 162.847 82.6008 162.847C50.5845 162.847 24.63 136.89 24.63 104.87C24.63 72.851 50.5845 46.8942 82.6008 46.8942C114.617 46.8942 140.572 72.851 140.572 104.87Z" stroke="white" stroke-width="0.834203"/>
<path d="M79.4895 142.241C79.1003 122.777 84.1605 102.534 95.0596 89.687C78.3217 90.4656 65.4764 102.144 61.5839 115.38C67.976 126.17 78.3217 140.684 79.4895 142.241Z" fill="white"/>
<ellipse cx="65.4759" cy="81.5126" rx="10.1206" ry="10.1215" fill="white"/>
<path d="M130.782 52.0538C133.758 50.0249 136.898 48.0333 140.212 46.0859C136.94 48.0854 133.797 50.0708 130.782 52.0538C82.725 84.8219 77.8286 127.307 85.8962 150.195L83.381 151.583L77.3291 141.073L63.8802 117.715C64.696 122.776 57.3011 149.637 45.2343 165.598C56.9717 147.995 58.3332 133.726 59.0677 114.11L60.8044 112.373L63.8802 117.715L77.3291 141.073C77.3291 98.7112 95.0547 75.5512 130.782 52.0538Z" fill="white"/>
<path fill-rule="evenodd" clip-rule="evenodd" d="M142.159 44.9195C142.8 45.9884 142.459 47.374 141.396 48.0239C138.149 50.0087 135.032 51.9772 132.046 53.941C84.7785 86.179 80.3424 127.61 88.0376 149.441C88.4065 150.488 87.9648 151.648 86.9933 152.184L84.4781 153.572C83.3943 154.17 82.0312 153.79 81.4136 152.717L65.3779 124.867C65.329 125.1 65.2781 125.337 65.2251 125.577C64.436 129.156 63.1848 133.574 61.5324 138.317C58.2384 147.771 53.2789 158.723 47.0454 166.968C46.305 167.947 44.9202 168.16 43.9194 167.449C42.9185 166.738 42.6643 165.36 43.3454 164.339C54.7235 147.275 56.0686 133.533 56.799 114.026C56.8204 113.453 57.0573 112.91 57.4623 112.505L59.199 110.769C59.6984 110.269 60.4019 110.03 61.1021 110.123C61.8023 110.216 62.4196 110.629 62.7721 111.241L75.2844 132.972C76.3003 115.249 80.7525 100.863 88.7408 88.2736C97.8823 73.8664 111.541 61.9932 129.519 50.1679C132.533 48.1134 135.711 46.0983 139.062 44.1293C140.136 43.4978 141.519 43.8505 142.159 44.9195ZM80.855 123.009C80.045 128.434 79.6262 134.231 79.6008 140.468L81.9404 144.532C80.5481 138.174 80.0574 130.871 80.855 123.009ZM61.6679 118.424L61.1985 117.608C61.094 119.972 60.9708 122.267 60.8101 124.511C61.1724 122.858 61.4196 121.439 61.5536 120.305C61.6571 119.429 61.6814 118.813 61.6679 118.424Z" fill="white"/>
<path fill-rule="evenodd" clip-rule="evenodd" d="M126.781 46.3535C129.822 45.0844 138.037 40.8141 140.913 30.8329C143.776 20.8954 140.786 7.23628 139.512 2.28753C139.237 11.5753 138.624 18.7994 137.401 24.7888C136.153 30.8986 134.271 35.728 131.47 40.1608C130.125 42.2891 128.571 44.3202 126.781 46.3535ZM138.415 0.868164C135.688 3.11152 124.128 13.1636 120.715 25.013C117.337 36.7389 123.569 44.5525 125.237 46.3767C127.286 44.1233 129.024 41.9025 130.498 39.5727C131.9 36.9143 131.711 34.3636 130.498 32.2588C129.27 30.1287 126.966 28.4144 124.09 27.5548C123.789 27.465 123.619 27.1488 123.708 26.8484C123.798 26.5481 124.114 26.3773 124.415 26.4671C127.513 27.3931 130.082 29.2641 131.481 31.6919C132.201 32.9402 132.604 34.3248 132.615 35.7814C134.22 32.4873 135.411 28.8581 136.288 24.5616C137.552 18.3746 138.162 10.8086 138.415 0.868164Z" fill="white"/>
<path d="M140.913 30.8329L141.02 30.8637L141.02 30.8637L140.913 30.8329ZM126.781 46.3535L126.698 46.2802C126.664 46.319 126.661 46.3763 126.691 46.4183C126.721 46.4603 126.776 46.476 126.824 46.456L126.781 46.3535ZM139.512 2.28753L139.619 2.25983C139.605 2.20625 139.554 2.171 139.499 2.17714C139.444 2.18329 139.402 2.22895 139.4 2.28426L139.512 2.28753ZM137.401 24.7888L137.51 24.811L137.51 24.811L137.401 24.7888ZM131.47 40.1608L131.376 40.1014L131.376 40.1014L131.47 40.1608ZM120.715 25.013L120.822 25.0438L120.822 25.0438L120.715 25.013ZM138.415 0.868164L138.526 0.870986C138.527 0.827517 138.503 0.7874 138.464 0.768333C138.424 0.749266 138.378 0.754756 138.344 0.782381L138.415 0.868164ZM125.237 46.3767L125.155 46.4517C125.176 46.4747 125.206 46.4878 125.237 46.4878C125.269 46.4877 125.298 46.4745 125.319 46.4514L125.237 46.3767ZM130.498 39.5727L130.593 39.6323L130.597 39.6245L130.498 39.5727ZM130.498 32.2588L130.402 32.3142L130.402 32.3142L130.498 32.2588ZM124.09 27.5548L124.058 27.6612L124.058 27.6612L124.09 27.5548ZM123.708 26.8484L123.602 26.8166L123.602 26.8166L123.708 26.8484ZM124.415 26.4671L124.446 26.3607L124.446 26.3607L124.415 26.4671ZM131.481 31.6919L131.578 31.6364L131.578 31.6364L131.481 31.6919ZM132.615 35.7814L132.504 35.7822C132.504 35.8338 132.54 35.8783 132.59 35.8897C132.641 35.9011 132.692 35.8764 132.715 35.83L132.615 35.7814ZM136.288 24.5616L136.18 24.5394L136.18 24.5394L136.288 24.5616ZM140.806 30.8022C137.945 40.7347 129.768 44.9865 126.738 46.251L126.824 46.456C129.875 45.1823 138.13 40.8935 141.02 30.8637L140.806 30.8022ZM139.404 2.31524C140.04 4.78654 141.105 9.43276 141.653 14.7009C142.202 19.971 142.232 25.8536 140.806 30.8022L141.02 30.8637C142.457 25.8748 142.424 19.959 141.874 14.678C141.325 9.39501 140.257 4.73727 139.619 2.25983L139.404 2.31524ZM139.4 2.28426C139.126 11.5697 138.513 18.7864 137.292 24.7666L137.51 24.811C138.734 18.8123 139.348 11.5809 139.623 2.29081L139.4 2.28426ZM137.292 24.7666C136.047 30.8653 134.169 35.6817 131.376 40.1014L131.564 40.2201C134.374 35.7743 136.26 30.9319 137.51 24.811L137.292 24.7666ZM131.376 40.1014C130.034 42.224 128.485 44.2505 126.698 46.2802L126.865 46.4269C128.658 44.39 130.215 42.3542 131.564 40.2201L131.376 40.1014ZM120.822 25.0438C122.522 19.141 126.254 13.6798 129.907 9.41052C133.558 5.14251 137.125 2.07321 138.485 0.953947L138.344 0.782381C136.978 1.90647 133.401 4.98488 129.738 9.26609C126.076 13.5461 122.321 19.0356 120.608 24.9823L120.822 25.0438ZM125.319 46.3018C123.662 44.489 117.459 36.7147 120.822 25.0438L120.608 24.9823C117.214 36.7631 123.477 44.616 125.155 46.4517L125.319 46.3018ZM125.319 46.4514C127.372 44.1943 129.114 41.9683 130.592 39.6321L130.405 39.5133C128.934 41.8366 127.201 44.0524 125.155 46.302L125.319 46.4514ZM130.597 39.6245C132.016 36.9323 131.826 34.3411 130.594 32.2033L130.402 32.3142C131.596 34.3861 131.784 36.8963 130.4 39.5209L130.597 39.6245ZM130.594 32.2033C129.35 30.0441 127.02 28.3145 124.121 27.4484L124.058 27.6612C126.913 28.5143 129.191 30.2133 130.402 32.3142L130.594 32.2033ZM124.121 27.4484C123.88 27.3762 123.743 27.1218 123.815 26.8802L123.602 26.8166C123.495 27.1758 123.699 27.5539 124.058 27.6612L124.121 27.4484ZM123.815 26.8802C123.887 26.6387 124.141 26.5013 124.383 26.5735L124.446 26.3607C124.087 26.2533 123.709 26.4575 123.602 26.8166L123.815 26.8802ZM124.383 26.5735C127.46 27.493 130.003 29.3487 131.385 31.7474L131.578 31.6364C130.162 29.1795 127.567 27.2931 124.446 26.3607L124.383 26.5735ZM131.385 31.7474C132.096 32.9802 132.493 34.3461 132.504 35.7822L132.726 35.7806C132.715 34.3035 132.306 32.9002 131.578 31.6364L131.385 31.7474ZM132.715 35.83C134.324 32.5262 135.519 28.8878 136.397 24.5839L136.18 24.5394C135.304 28.8284 134.115 32.4485 132.515 35.7328L132.715 35.83ZM136.397 24.5839C137.662 18.3871 138.273 10.8135 138.526 0.870986L138.304 0.865342C138.051 10.8037 137.441 18.362 136.18 24.5394L136.397 24.5839Z" fill="white"/>
</g>
<defs>
<clipPath id="clip0_16_1767">
<rect width="167" height="167" fill="white" transform="translate(0 0.869141)"/>
</clipPath>
</defs>
</svg>
